<svg width="17" height="17" viewBox="0 0 17 17" fill="none" xmlns="http://www.w3.org/2000/svg">
<g id="interface-bookmark-tag--tags-bookmark-favorite" clip-path="url(#clip0_1_1374)">
<g id="Group">
<path id="Vector" d="M16.029 10.9585L11.5833 15.4042C11.4226 15.5648 11.2047 15.6549 10.9776 15.6549C10.7504 15.6549 10.5326 15.5648 10.3719 15.4042L1.549 6.58139C1.50467 6.539 1.47037 6.48725 1.44862 6.4299C1.42687 6.37256 1.41821 6.31108 1.42329 6.24996L2.09757 1.87281C2.10307 1.76851 2.14698 1.66994 2.22084 1.59608C2.29469 1.52222 2.39327 1.47832 2.49757 1.47281L6.87471 0.798529C6.93583 0.793456 6.99732 0.802112 7.05466 0.823863C7.112 0.845614 7.16376 0.879911 7.20614 0.924243L16.029 9.7471C16.1895 9.90781 16.2797 10.1257 16.2797 10.3528C16.2797 10.58 16.1895 10.7978 16.029 10.9585V10.9585Z" stroke="#1DAB7E" stroke-linecap="round" stroke-linejoin="round"/>
<path id="Vector_2" d="M5.54897 5.49564C5.86456 5.49564 6.1204 5.2398 6.1204 4.92421C6.1204 4.60862 5.86456 4.35278 5.54897 4.35278C5.23338 4.35278 4.97754 4.60862 4.97754 4.92421C4.97754 5.2398 5.23338 5.49564 5.54897 5.49564Z" stroke="#1DAB7E" stroke-linecap="round" stroke-linejoin="round"/>
</g>
</g>
<defs>
<clipPath id="clip0_1_1374">
<rect width="16" height="16" fill="white" transform="translate(0.851562 0.227051)"/>
</clipPath>
</defs>
</svg>
