<svg width="17" height="17" viewBox="0 0 17 17" fill="none" xmlns="http://www.w3.org/2000/svg">
<g id="interface-bookmark-tag--tags-bookmark-favorite" clip-path="url(#clip0_288_182)">
<g id="Group">
<path id="Vector" d="M15.4675 11.0174L11.0218 15.4631C10.861 15.6236 10.6432 15.7138 10.416 15.7138C10.1889 15.7138 9.97105 15.6236 9.81033 15.4631L0.987476 6.64022C0.943143 6.59784 0.908847 6.54609 0.887096 6.48874C0.865344 6.4314 0.856688 6.36992 0.861762 6.3088L1.53605 1.93165C1.54155 1.82735 1.58546 1.72877 1.65931 1.65492C1.73317 1.58106 1.83174 1.53715 1.93605 1.53165L6.31319 0.857367C6.37431 0.852294 6.43579 0.86095 6.49314 0.882701C6.55048 0.904452 6.60224 0.938749 6.64462 0.983081L15.4675 9.80594C15.628 9.96665 15.7181 10.1845 15.7181 10.4117C15.7181 10.6388 15.628 10.8567 15.4675 11.0174V11.0174Z" stroke="white" stroke-linecap="round" stroke-linejoin="round"/>
<path id="Vector_2" d="M4.98744 5.55448C5.30304 5.55448 5.55887 5.29864 5.55887 4.98305C5.55887 4.66746 5.30304 4.41162 4.98744 4.41162C4.67185 4.41162 4.41602 4.66746 4.41602 4.98305C4.41602 5.29864 4.67185 5.55448 4.98744 5.55448Z" stroke="white" stroke-linecap="round" stroke-linejoin="round"/>
</g>
</g>
<defs>
<clipPath id="clip0_288_182">
<rect width="16" height="16" fill="white" transform="translate(0.290039 0.285889)"/>
</clipPath>
</defs>
</svg>
