<svg width="50" height="51" viewBox="0 0 50 51" fill="none" xmlns="http://www.w3.org/2000/svg">
<g id="carbon:phone-voice">
<path id="Vector" d="M37.5 20.7007H34.375C34.3738 19.4579 33.8795 18.2663 33.0007 17.3875C32.1219 16.5087 30.9303 16.0144 29.6875 16.0132V12.8882C31.7587 12.8907 33.7444 13.7146 35.209 15.1792C36.6736 16.6437 37.4975 18.6294 37.5 20.7007Z" fill="#1DAB7E"/>
<path id="Vector_2" d="M43.7491 20.7007H40.6241C40.6208 17.8009 39.4674 15.0208 37.417 12.9704C35.3665 10.9199 32.5864 9.76649 29.6866 9.76319V6.63819C33.415 6.64232 36.9894 8.12523 39.6258 10.7616C42.2621 13.3979 43.745 16.9723 43.7491 20.7007ZM40.6241 45.7007H40.3585C9.65539 43.9351 5.29601 18.0288 4.68664 10.1226C4.5914 8.8831 4.9924 7.65657 5.80142 6.71275C6.61045 5.76893 7.76126 5.18513 9.0007 5.08975C9.12466 5.08037 9.24914 5.07569 9.37414 5.07569H17.6085C18.2344 5.07508 18.846 5.26242 19.3642 5.61344C19.8824 5.96446 20.2832 6.46298 20.5148 7.04444L22.8898 12.8882C23.1184 13.4562 23.1752 14.0789 23.053 14.679C22.9307 15.279 22.6349 15.8299 22.2023 16.2632L18.8741 19.6226C19.3919 22.5778 20.806 25.3022 22.9247 27.4265C25.0433 29.5507 27.7641 30.972 30.7179 31.4976L34.1085 28.1382C34.5484 27.7103 35.1044 27.4214 35.7074 27.3075C36.3104 27.1935 36.9335 27.2597 37.4991 27.4976L43.3898 29.8569C43.9625 30.0958 44.4511 30.4998 44.7933 31.0174C45.1356 31.5349 45.316 32.1427 45.3116 32.7632V41.0132C45.3116 42.2564 44.8178 43.4487 43.9387 44.3277C43.0596 45.2068 41.8674 45.7007 40.6241 45.7007ZM9.37414 8.20069C9.16895 8.20007 8.96565 8.23987 8.77584 8.31783C8.58603 8.39578 8.41344 8.51036 8.26791 8.65501C8.12238 8.79967 8.00677 8.97157 7.92768 9.16091C7.84859 9.35025 7.80757 9.55331 7.80695 9.7585C7.80695 9.80225 7.80852 9.84548 7.81164 9.88819C8.53039 19.1382 13.1398 41.0132 40.5304 42.5757C40.944 42.6005 41.3504 42.46 41.6604 42.1851C41.9704 41.9103 42.1586 41.5236 42.1835 41.1101L42.1866 41.0132V32.7632L36.296 30.4038L31.8116 34.8569L31.0616 34.7632C17.4679 33.0601 15.6241 19.4663 15.6241 19.3257L15.5304 18.5757L19.9679 14.0913L17.6241 8.20069H9.37414Z" fill="#1DAB7E"/>
</g>
</svg>
