<svg width="50" height="51" viewBox="0 0 50 51" fill="none" xmlns="http://www.w3.org/2000/svg">
<g id="ep:map-location">
<path id="Vector" d="M39.0625 20.7007C39.0625 16.9711 37.5809 13.3942 34.9437 10.757C32.3065 8.11976 28.7296 6.63818 25 6.63818C21.2704 6.63818 17.6935 8.11976 15.0563 10.757C12.4191 13.3942 10.9375 16.9711 10.9375 20.7007C10.9375 26.4694 15.5531 33.9882 25 42.9944C34.4469 33.9882 39.0625 26.4694 39.0625 20.7007ZM25 47.2632C13.5406 36.8476 7.8125 27.9913 7.8125 20.7007C7.8125 16.1423 9.62332 11.7706 12.8466 8.54729C16.0699 5.324 20.4416 3.51318 25 3.51318C29.5584 3.51318 33.9301 5.324 37.1534 8.54729C40.3767 11.7706 42.1875 16.1423 42.1875 20.7007C42.1875 27.9913 36.4594 36.8476 25 47.2632Z" fill="#1DAB7E"/>
<path id="Vector_2" d="M25 22.2632C25.8288 22.2632 26.6237 21.9339 27.2097 21.3479C27.7958 20.7618 28.125 19.967 28.125 19.1382C28.125 18.3094 27.7958 17.5145 27.2097 16.9285C26.6237 16.3424 25.8288 16.0132 25 16.0132C24.1712 16.0132 23.3763 16.3424 22.7903 16.9285C22.2042 17.5145 21.875 18.3094 21.875 19.1382C21.875 19.967 22.2042 20.7618 22.7903 21.3479C23.3763 21.9339 24.1712 22.2632 25 22.2632ZM25 25.3882C23.3424 25.3882 21.7527 24.7297 20.5806 23.5576C19.4085 22.3855 18.75 20.7958 18.75 19.1382C18.75 17.4806 19.4085 15.8909 20.5806 14.7188C21.7527 13.5467 23.3424 12.8882 25 12.8882C26.6576 12.8882 28.2473 13.5467 29.4194 14.7188C30.5915 15.8909 31.25 17.4806 31.25 19.1382C31.25 20.7958 30.5915 22.3855 29.4194 23.5576C28.2473 24.7297 26.6576 25.3882 25 25.3882ZM41.875 34.7632L46.875 47.2632H32.8125V44.1382H17.1875V47.2632H3.125L8.125 34.7632H41.875ZM38.5094 34.7632H11.4906L7.74062 44.1382H42.2594L38.5094 34.7632Z" fill="#1DAB7E"/>
</g>
</svg>
