<svg width="50" height="51" viewBox="0 0 50 51" fill="none" xmlns="http://www.w3.org/2000/svg">
<g id="clarity:email-line" clip-path="url(#clip0_1_5771)">
<path id="Vector" d="M44.444 8.72144H5.55512C4.81841 8.72144 4.11187 9.01409 3.59094 9.53503C3.07 10.056 2.77734 10.7625 2.77734 11.4992V39.277C2.77734 40.0137 3.07 40.7202 3.59094 41.2412C4.11187 41.7621 4.81841 42.0548 5.55512 42.0548H44.444C45.1807 42.0548 45.8873 41.7621 46.4082 41.2412C46.9291 40.7202 47.2218 40.0137 47.2218 39.277V11.4992C47.2218 10.7625 46.9291 10.056 46.4082 9.53503C45.8873 9.01409 45.1807 8.72144 44.444 8.72144ZM42.3051 39.277H7.86068L17.5829 29.2214L15.5829 27.2909L5.55512 37.6659V13.6103L22.819 30.7909C23.3395 31.3082 24.0435 31.5986 24.7773 31.5986C25.5112 31.5986 26.2152 31.3082 26.7357 30.7909L44.444 13.1798V37.4853L34.2218 27.2631L32.2635 29.2214L42.3051 39.277ZM7.37457 11.4992H42.194L24.7773 28.8187L7.37457 11.4992Z" fill="#1DAB7E"/>
</g>
<defs>
<clipPath id="clip0_1_5771">
<rect width="50" height="50" fill="white" transform="translate(0 0.388184)"/>
</clipPath>
</defs>
</svg>
