<svg width="97" height="74" viewBox="0 0 97 74" fill="none" xmlns="http://www.w3.org/2000/svg">
<g id="Layer_1" clip-path="url(#clip0_1_1309)">
<path id="Vector" d="M0.0101517 48.9022C0.0101517 47.3028 0.0254193 46.1479 0.0101517 44.9982C-0.0509186 41.6614 0.27479 38.3451 1.00763 35.1054C1.91351 31.1197 3.25197 27.2771 5.18586 23.6439C6.73297 20.7364 8.59053 18.069 10.6669 15.5447C12.5652 13.2402 14.7535 11.2422 17.1149 9.41798C19.5832 7.50688 22.2296 5.88704 25.0083 4.50226C26.7844 3.61313 28.6674 2.93352 30.5657 2.33055C32.3418 1.76846 34.1434 1.29324 35.9856 0.981536C37.5938 0.705602 39.1969 0.383678 40.8458 0.388788C42.113 0.388788 43.3599 0.138403 44.6475 0.363239C46.0826 0.613624 47.187 1.35456 47.8689 2.52984C49.5483 5.42204 48.1895 8.85589 45.1411 9.791C43.8179 10.1998 42.4031 10.1027 41.0341 10.164C37.7618 10.3173 34.6574 11.0787 31.6039 12.2489C27.0287 14.0016 23.054 16.628 19.6239 20.1232C16.6264 23.184 14.2955 26.6843 12.5957 30.6292C11.8934 32.2541 11.2674 33.8944 10.8247 35.6062C10.7636 35.8464 10.6364 36.1121 10.8247 36.2807C11.0588 36.4902 11.3438 36.2654 11.5524 36.1581C14.5296 34.6558 17.7256 34.0937 20.9878 34.3594C24.8403 34.6762 28.4129 35.9741 31.4461 38.4831C34.52 41.0278 36.7287 44.1551 37.9195 48.0233C38.6066 50.2665 38.9781 52.5302 38.8305 54.8501C38.6982 56.9094 38.1944 58.892 37.4768 60.8491C36.3928 63.7873 34.6828 66.2451 32.3774 68.2993C29.8532 70.5477 26.9625 72.0296 23.6342 72.7501C20.4534 73.4399 17.3134 73.3888 14.2243 72.5252C11.0741 71.6463 8.28009 70.0571 5.94415 67.6912C4.06624 65.7904 2.59037 63.6187 1.542 61.1812C0.804066 59.4592 0.447822 57.6094 0.178095 55.7443C-0.173059 53.3171 0.152649 50.8848 0.0203301 48.9073L0.0101517 48.9022Z" fill="#1DAB7E" fill-opacity="0.1"/>
<path id="Vector_2" d="M48.6022 48.0386C48.6022 46.0304 48.592 44.0222 48.6022 42.014C48.6174 38.9481 49.2078 35.9792 49.9712 33.0206C50.5004 30.9715 51.1315 28.9736 51.9712 27.0471C53.4776 23.5928 55.3301 20.3327 57.6202 17.3434C59.8544 14.4308 62.399 11.8298 65.31 9.59171C68.3279 7.27182 71.5697 5.3556 75.0507 3.80219C77.7989 2.57582 80.659 1.71736 83.5751 1.10928C85.397 0.726036 87.2495 0.388783 89.1376 0.378563C90.5117 0.373453 91.8756 0.143508 93.2598 0.378563C95.5805 0.772025 97.3312 3.45472 96.9444 5.78995C96.5627 8.07918 94.5423 9.70924 93.2395 9.85742C91.9214 10.0107 90.5982 10.1436 89.275 10.1793C85.8093 10.2764 82.5166 11.1707 79.346 12.4686C74.8522 14.3133 70.9132 17.0368 67.5645 20.5627C65.0301 23.23 62.9791 26.2653 61.4524 29.6327C60.5618 31.6052 59.7373 33.598 59.2742 35.7288C59.2284 35.9281 59.0452 36.153 59.264 36.3114C59.4523 36.4493 59.6864 36.2909 59.8646 36.2041C60.8773 35.6931 61.9206 35.2689 63.03 35.0135C65.3863 34.4769 67.7375 34.0579 70.1702 34.4514C72.2262 34.7835 74.2263 35.2587 76.1296 36.153C78.0788 37.0676 79.8244 38.2531 81.341 39.7708C83.6311 42.0702 85.4072 44.712 86.3691 47.8444C86.995 49.8781 87.3309 51.9936 87.2546 54.1194C87.0307 60.5527 84.3945 65.7597 79.2086 69.5972C76.7759 71.3959 74.0329 72.5048 71.0761 72.9902C67.6816 73.5472 64.2922 73.2559 61.086 72.0142C56.3378 70.1798 52.7957 66.9197 50.5157 62.3105C49.2536 59.7607 48.5818 57.078 48.6022 54.2216C48.6174 52.1623 48.6022 50.0979 48.6022 48.0335V48.0386Z" fill="#1DAB7E" fill-opacity="0.1"/>
</g>
<defs>
<clipPath id="clip0_1_1309">
<rect width="97" height="73" fill="white" transform="translate(0 0.266113)"/>
</clipPath>
</defs>
</svg>
