<svg width="21" height="21" viewBox="0 0 21 21" fill="none" xmlns="http://www.w3.org/2000/svg">
<g id="clarity:email-line" clip-path="url(#clip0_1_23)">
<path id="Vector" d="M18.3991 3.8335H2.84353C2.54885 3.8335 2.26623 3.95056 2.05786 4.15893C1.84948 4.36731 1.73242 4.64992 1.73242 4.94461V16.0557C1.73242 16.3504 1.84948 16.633 2.05786 16.8414C2.26623 17.0498 2.54885 17.1668 2.84353 17.1668H18.3991C18.6938 17.1668 18.9764 17.0498 19.1848 16.8414C19.3931 16.633 19.5102 16.3504 19.5102 16.0557V4.94461C19.5102 4.64992 19.3931 4.36731 19.1848 4.15893C18.9764 3.95056 18.6938 3.8335 18.3991 3.8335ZM17.5435 16.0557H3.76576L7.65464 12.0335L6.85464 11.2613L2.84353 15.4113V5.78905L9.74909 12.6613C9.95727 12.8682 10.2389 12.9844 10.5324 12.9844C10.826 12.9844 11.1076 12.8682 11.3158 12.6613L18.3991 5.61683V15.3391L14.3102 11.2502L13.5269 12.0335L17.5435 16.0557ZM3.57131 4.94461H17.4991L10.5324 11.8724L3.57131 4.94461Z" fill="white"/>
</g>
<defs>
<clipPath id="clip0_1_23">
<rect width="20" height="20" fill="white" transform="translate(0.623047 0.5)"/>
</clipPath>
</defs>
</svg>
