<svg width="25" height="25" viewBox="0 0 25 25" fill="none" xmlns="http://www.w3.org/2000/svg">
<g id="clarity:email-line" clip-path="url(#clip0_1_2033)">
<path id="Vector" d="M22.2969 4.06543H3.63021C3.27659 4.06543 2.93745 4.20591 2.6874 4.45595C2.43735 4.706 2.29688 5.04514 2.29688 5.39876V18.7321C2.29688 19.0857 2.43735 19.4249 2.6874 19.6749C2.93745 19.925 3.27659 20.0654 3.63021 20.0654H22.2969C22.6505 20.0654 22.9896 19.925 23.2397 19.6749C23.4897 19.4249 23.6302 19.0857 23.6302 18.7321V5.39876C23.6302 5.04514 23.4897 4.706 23.2397 4.45595C22.9896 4.20591 22.6505 4.06543 22.2969 4.06543ZM21.2702 18.7321H4.73688L9.40354 13.9054L8.44354 12.9788L3.63021 17.9588V6.4121L11.9169 14.6588C12.1667 14.9071 12.5046 15.0465 12.8569 15.0465C13.2091 15.0465 13.5471 14.9071 13.7969 14.6588L22.2969 6.20543V17.8721L17.3902 12.9654L16.4502 13.9054L21.2702 18.7321ZM4.50354 5.39876H21.2169L12.8569 13.7121L4.50354 5.39876Z" fill="white"/>
</g>
<defs>
<clipPath id="clip0_1_2033">
<rect width="24" height="24" fill="white" transform="translate(0.96582 0.0654297)"/>
</clipPath>
</defs>
</svg>
