<svg width="21" height="21" viewBox="0 0 21 21" fill="none" xmlns="http://www.w3.org/2000/svg">
<g id="icon/instagram">
<path id="vector" fill-rule="evenodd" clip-rule="evenodd" d="M10.63 3.10889C8.55026 3.10889 8.28991 3.11757 7.47313 3.15483C6.65788 3.1921 6.10094 3.32176 5.61393 3.51115C5.10344 3.7031 4.64043 4.00429 4.25756 4.3943C3.86817 4.77672 3.56679 5.23941 3.37441 5.75016C3.18604 6.23717 3.05587 6.79462 3.0186 7.60987C2.98185 8.42614 2.97266 8.68598 2.97266 10.7662C2.97266 12.8465 2.98133 13.1063 3.0186 13.9231C3.05587 14.7383 3.18553 15.2953 3.37492 15.7823C3.56687 16.2928 3.86805 16.7558 4.25807 17.1387C4.6405 17.528 5.10319 17.8294 5.61393 18.0218C6.10094 18.2107 6.65788 18.3404 7.47313 18.3776C8.28991 18.4149 8.55026 18.4236 10.63 18.4236C12.7097 18.4236 12.9701 18.4149 13.7869 18.3776C14.6021 18.3404 15.1591 18.2107 15.6461 18.0213C16.1566 17.8294 16.6196 17.5282 17.0024 17.1382C17.3918 16.7557 17.6932 16.293 17.8856 15.7823C18.0745 15.2953 18.2041 14.7383 18.2414 13.9231C18.2787 13.1063 18.2873 12.846 18.2873 10.7662C18.2873 8.68649 18.2787 8.42614 18.2414 7.60936C18.2041 6.79411 18.0745 6.23717 17.8851 5.75016C17.6928 5.23919 17.3914 4.77631 17.0019 4.39379C16.6195 4.0044 16.1568 3.70302 15.6461 3.51064C15.1591 3.32227 14.6016 3.1921 13.7864 3.15483C12.9701 3.11808 12.7102 3.10889 10.63 3.10889ZM10.63 4.48874C12.6745 4.48874 12.917 4.4964 13.7246 4.53315C14.4709 4.56735 14.8762 4.6914 15.1463 4.79708C15.5036 4.93542 15.7589 5.10184 16.0269 5.36933C16.2949 5.63734 16.4608 5.89259 16.5992 6.24993C16.7043 6.51998 16.8289 6.92531 16.8631 7.67164C16.8998 8.47924 16.9075 8.72172 16.9075 10.7662C16.9075 12.8107 16.8998 13.0532 16.8631 13.8608C16.8289 14.6072 16.7048 15.0125 16.5992 15.2825C16.4766 15.6151 16.2811 15.916 16.0269 16.1631C15.7799 16.4173 15.4789 16.6129 15.1463 16.7354C14.8762 16.8405 14.4709 16.9651 13.7246 16.9993C12.917 17.0361 12.675 17.0437 10.63 17.0437C8.58498 17.0437 8.343 17.0361 7.53541 16.9993C6.78907 16.9651 6.38375 16.8411 6.1137 16.7354C5.78109 16.6128 5.48018 16.4173 5.2331 16.1631C4.97897 15.916 4.78343 15.6151 4.66084 15.2825C4.55568 15.0125 4.43112 14.6072 4.39692 13.8608C4.36017 13.0532 4.35251 12.8107 4.35251 10.7662C4.35251 8.72172 4.36017 8.47924 4.39692 7.67164C4.43112 6.92531 4.55517 6.51998 4.66084 6.24993C4.79919 5.89259 4.96561 5.63734 5.2331 5.36933C5.48015 5.11513 5.78107 4.91958 6.1137 4.79708C6.38375 4.69191 6.78907 4.56735 7.53541 4.53315C8.343 4.4964 8.58549 4.48874 10.63 4.48874Z" fill="#1DAB7E"/>
<path id="vector_2" fill-rule="evenodd" clip-rule="evenodd" d="M10.6302 13.3213C10.2947 13.3213 9.96244 13.2552 9.65245 13.1268C9.34247 12.9984 9.06081 12.8102 8.82355 12.573C8.5863 12.3357 8.3981 12.0541 8.2697 11.7441C8.1413 11.4341 8.07521 11.1018 8.07521 10.7663C8.07521 10.4308 8.1413 10.0986 8.2697 9.78857C8.3981 9.47858 8.5863 9.19692 8.82355 8.95966C9.06081 8.72241 9.34247 8.53421 9.65245 8.40581C9.96244 8.27741 10.2947 8.21132 10.6302 8.21132C11.3078 8.21132 11.9577 8.48051 12.4369 8.95966C12.916 9.43882 13.1852 10.0887 13.1852 10.7663C13.1852 11.444 12.916 12.0938 12.4369 12.573C11.9577 13.0521 11.3078 13.3213 10.6302 13.3213ZM10.6302 6.83045C9.58635 6.83045 8.58525 7.24512 7.84713 7.98324C7.10901 8.72136 6.69434 9.72246 6.69434 10.7663C6.69434 11.8102 7.10901 12.8113 7.84713 13.5494C8.58525 14.2875 9.58635 14.7022 10.6302 14.7022C11.6741 14.7022 12.6752 14.2875 13.4133 13.5494C14.1514 12.8113 14.5661 11.8102 14.5661 10.7663C14.5661 9.72246 14.1514 8.72136 13.4133 7.98324C12.6752 7.24512 11.6741 6.83045 10.6302 6.83045ZM15.7111 6.75898C15.7111 7.00573 15.6131 7.24237 15.4386 7.41685C15.2641 7.59133 15.0275 7.68935 14.7807 7.68935C14.534 7.68935 14.2974 7.59133 14.1229 7.41685C13.9484 7.24237 13.8504 7.00573 13.8504 6.75898C13.8504 6.51223 13.9484 6.27559 14.1229 6.10111C14.2974 5.92663 14.534 5.82861 14.7807 5.82861C15.0275 5.82861 15.2641 5.92663 15.4386 6.10111C15.6131 6.27559 15.7111 6.51223 15.7111 6.75898Z" fill="#1DAB7E"/>
</g>
</svg>
