<svg width="14" height="15" viewBox="0 0 14 15" fill="none" xmlns="http://www.w3.org/2000/svg">
<g id="Layer_1" clip-path="url(#clip0_1_1989)">
<path id="Vector" d="M0.258789 14.1285C0.372741 13.9889 0.468548 13.8662 0.569436 13.7478C0.980245 13.267 1.39613 12.7906 1.80114 12.3047C2.25187 11.7633 2.71711 11.2342 3.1751 10.6994C3.60986 10.1908 4.04317 9.68006 4.47793 9.1715C4.82124 8.77035 5.166 8.3692 5.51511 7.97317C5.55721 7.92494 5.5514 7.90156 5.52237 7.85918C5.18414 7.3645 4.84664 6.87056 4.50986 6.37515C4.19051 5.90532 3.87478 5.43256 3.55397 4.96346C3.09598 4.29269 2.63509 3.62484 2.17711 2.95479C1.79533 2.39582 1.41573 1.83465 1.03395 1.27567C0.793712 0.922749 0.549839 0.572749 0.308144 0.221288C0.293628 0.200828 0.265321 0.180369 0.276209 0.153333C0.292176 0.116799 0.329919 0.135797 0.356774 0.135797C1.63347 0.135066 2.90945 0.135797 4.18615 0.133605C4.25946 0.133605 4.30446 0.16064 4.34365 0.218365C4.81978 0.919826 5.29664 1.62056 5.7735 2.32129C6.14511 2.86711 6.51528 3.41367 6.88834 3.95803C7.17431 4.37599 7.46609 4.79102 7.74988 5.21043C7.79851 5.28204 7.82464 5.27692 7.87327 5.2192C8.17303 4.86409 8.47279 4.50897 8.774 4.15459C9.10352 3.76732 9.43376 3.38006 9.76473 2.99352C10.1959 2.48935 10.6263 1.98517 11.0581 1.48173C11.4254 1.05281 11.7934 0.624628 12.1628 0.197175C12.1911 0.164294 12.2245 0.132874 12.2768 0.133605C12.6353 0.135797 12.9939 0.135797 13.3531 0.137258C13.3626 0.137258 13.3778 0.133605 13.38 0.154795C12.901 0.740807 12.4038 1.31586 11.9066 1.89091C11.5408 2.31398 11.1793 2.74143 10.8164 3.16669C10.2873 3.78559 9.75747 4.40448 9.22836 5.02338C8.95037 5.34853 8.67456 5.67442 8.39513 5.99738C8.34287 6.05803 8.36174 6.10699 8.39803 6.16033C8.76021 6.69154 9.12239 7.22348 9.4853 7.75469C9.8453 8.28152 10.206 8.80761 10.5653 9.33444C10.9638 9.91972 11.3601 10.5072 11.76 11.0917C12.1599 11.677 12.5678 12.2565 12.9648 12.8447C13.2406 13.2531 13.5164 13.6616 13.7988 14.0657C13.809 14.0795 13.8119 14.0985 13.8235 14.1285C13.7748 14.1285 13.7385 14.1285 13.7023 14.1285C12.4597 14.1285 11.2178 14.127 9.97522 14.1314C9.85328 14.1314 9.7778 14.0985 9.70812 13.9948C9.36917 13.4877 9.02078 12.9879 8.67819 12.483C8.30005 11.9255 7.92625 11.365 7.54666 10.8082C7.28972 10.4312 7.02407 10.0593 6.76568 9.68298C6.56246 9.38705 6.36286 9.0882 6.16544 8.78788C6.11536 8.71189 6.08995 8.69363 6.02027 8.77692C5.62761 9.2453 5.22842 9.70709 4.83212 10.1718C4.39156 10.6877 3.95244 11.2043 3.51187 11.7194C3.06114 12.2462 2.60969 12.7723 2.15824 13.2992C1.93686 13.5578 1.71477 13.815 1.49339 14.0737C1.46146 14.111 1.42589 14.1285 1.37654 14.1285C1.01436 14.127 0.651453 14.1278 0.260241 14.1278L0.258789 14.1285ZM1.88388 1.0477C1.91436 1.10542 1.93033 1.14342 1.95356 1.17703C2.14807 1.45615 2.34477 1.73308 2.53856 2.01221C2.98203 2.65083 3.4226 3.29164 3.86679 3.93026C4.41188 4.71502 4.96059 5.49686 5.50422 6.28162C5.81124 6.72442 6.12044 7.16649 6.4231 7.61294C6.81068 8.18361 7.21786 8.74112 7.61125 9.30887C8.13093 10.0586 8.63682 10.8185 9.16449 11.5623C9.54699 12.1016 9.91643 12.6503 10.3011 13.1881C10.3425 13.2458 10.386 13.2619 10.4513 13.2619C11.0022 13.2604 11.5539 13.2619 12.1055 13.2604C12.1323 13.2604 12.1664 13.2758 12.1868 13.2392C12.1722 13.2129 12.1599 13.1852 12.1425 13.1603C11.7999 12.6642 11.458 12.1673 11.1133 11.6719C10.7119 11.0954 10.3055 10.5211 9.90409 9.94384C9.55134 9.43674 9.20441 8.92599 8.85239 8.41889C8.44884 7.83872 8.04021 7.26221 7.63666 6.68204C7.23673 6.10699 6.84262 5.52901 6.44342 4.95396C5.9506 4.24373 5.45559 3.53569 4.96204 2.82619C4.5672 2.25772 4.17236 1.68924 3.78042 1.11857C3.74341 1.0645 3.70421 1.0455 3.64179 1.0455C3.33187 1.04843 3.02268 1.04697 2.71276 1.04697C2.44203 1.04697 2.17057 1.04697 1.88388 1.04697V1.0477Z" fill="#1DAB7E"/>
</g>
<defs>
<clipPath id="clip0_1_1989">
<rect width="13.5625" height="14" fill="white" transform="translate(0.258789 0.130859)"/>
</clipPath>
</defs>
</svg>
