<svg width="22" height="21" viewBox="0 0 22 21" fill="none" xmlns="http://www.w3.org/2000/svg">
<g id="icon/linkedin">
<path id="vector" d="M18.7063 4.23497V17.2975C18.7063 17.5961 18.5876 17.8826 18.3765 18.0937C18.1653 18.3049 17.8789 18.4236 17.5802 18.4236H4.51768C4.21903 18.4236 3.9326 18.3049 3.72142 18.0937C3.51024 17.8826 3.3916 17.5961 3.3916 17.2975V4.23497C3.3916 3.93631 3.51024 3.64989 3.72142 3.43871C3.9326 3.22753 4.21903 3.10889 4.51768 3.10889H17.5802C17.8789 3.10889 18.1653 3.22753 18.3765 3.43871C18.5876 3.64989 18.7063 3.93631 18.7063 4.23497ZM7.89592 8.9645H5.64376V16.1714H7.89592V8.9645ZM8.09861 6.48713C8.0998 6.31677 8.06742 6.14784 8.00332 5.99C7.93923 5.83216 7.84466 5.68849 7.72504 5.56719C7.60542 5.44589 7.46307 5.34934 7.30613 5.28306C7.14919 5.21678 6.98074 5.18205 6.81038 5.18087H6.76984C6.4234 5.18087 6.09115 5.3185 5.84618 5.56347C5.60121 5.80844 5.46359 6.14069 5.46359 6.48713C5.46359 6.83357 5.60121 7.16582 5.84618 7.41079C6.09115 7.65576 6.4234 7.79338 6.76984 7.79338C6.94021 7.79757 7.10974 7.76815 7.26873 7.7068C7.42773 7.64545 7.57308 7.55338 7.69647 7.43583C7.81987 7.31829 7.9189 7.17759 7.9879 7.02176C8.0569 6.86593 8.09452 6.69804 8.09861 6.52766V6.48713ZM16.4541 11.7932C16.4541 9.62664 15.0758 8.78433 13.7065 8.78433C13.2582 8.76188 12.8118 8.85737 12.4118 9.06128C12.0119 9.26519 11.6725 9.57039 11.4273 9.94644H11.3642V8.9645H9.24722V16.1714H11.4994V12.3382C11.4668 11.9457 11.5905 11.5561 11.8435 11.2541C12.0965 10.9522 12.4584 10.7623 12.8507 10.7257H12.9363C13.6524 10.7257 14.1839 11.1761 14.1839 12.3112V16.1714H16.4361L16.4541 11.7932Z" fill="#1DAB7E"/>
</g>
</svg>
