<svg width="25" height="25" viewBox="0 0 25 25" fill="none" xmlns="http://www.w3.org/2000/svg">
<g id="carbon:phone-voice">
<path id="Vector" d="M18.9658 10.377H17.4658C17.4652 9.7804 17.228 9.20845 16.8062 8.78662C16.3843 8.36479 15.8124 8.12755 15.2158 8.12695V6.62695C16.21 6.62814 17.1632 7.02361 17.8662 7.72662C18.5692 8.42962 18.9646 9.38276 18.9658 10.377Z" fill="white"/>
<path id="Vector_2" d="M21.9627 10.377H20.4627C20.4611 8.98505 19.9075 7.65062 18.9232 6.6664C17.939 5.68218 16.6046 5.12854 15.2127 5.12695V3.62695C17.0023 3.62894 18.718 4.34074 19.9835 5.60618C21.2489 6.87162 21.9607 8.58735 21.9627 10.377ZM20.4627 22.377H20.3352C5.59767 21.5295 3.50517 9.09445 3.21267 5.29945C3.16696 4.70451 3.35944 4.11578 3.74777 3.66275C4.1361 3.20971 4.68849 2.92949 5.28342 2.8837C5.34292 2.8792 5.40267 2.87695 5.46267 2.87695H9.41517C9.71559 2.87666 10.0092 2.96659 10.2579 3.13508C10.5066 3.30356 10.699 3.54286 10.8102 3.82195L11.9502 6.62695C12.0599 6.89961 12.0872 7.19851 12.0285 7.48652C11.9698 7.77453 11.8278 8.03896 11.6202 8.24695L10.0227 9.85945C10.2712 11.2779 10.95 12.5857 11.9669 13.6053C12.9839 14.625 14.2898 15.3072 15.7077 15.5595L17.3352 13.947C17.5463 13.7416 17.8132 13.6029 18.1026 13.5482C18.3921 13.4935 18.6912 13.5253 18.9627 13.6395L21.7902 14.772C22.0651 14.8866 22.2996 15.0805 22.4639 15.329C22.6282 15.5774 22.7148 15.8691 22.7127 16.167V20.127C22.7127 20.7237 22.4756 21.296 22.0537 21.7179C21.6317 22.1399 21.0594 22.377 20.4627 22.377ZM5.46267 4.37695C5.36418 4.37666 5.2666 4.39576 5.17549 4.43318C5.08438 4.4706 5.00154 4.5256 4.93168 4.59503C4.86183 4.66447 4.80634 4.74698 4.76837 4.83786C4.73041 4.92874 4.71072 5.02621 4.71042 5.1247C4.71042 5.1457 4.71117 5.16645 4.71267 5.18695C5.05767 9.62695 7.27017 20.127 20.4177 20.877C20.6162 20.8888 20.8113 20.8214 20.9601 20.6895C21.1089 20.5576 21.1992 20.372 21.2112 20.1735L21.2127 20.127V16.167L18.3852 15.0345L16.2327 17.172L15.8727 17.127C9.34767 16.3095 8.46267 9.78445 8.46267 9.71695L8.41767 9.35695L10.5477 7.20445L9.42267 4.37695H5.46267Z" fill="white"/>
</g>
</svg>
