<svg width="21" height="21" viewBox="0 0 21 21" fill="none" xmlns="http://www.w3.org/2000/svg">
<g id="carbon:phone-voice">
<path id="Vector" d="M15.623 8.625H14.373C14.3726 8.12787 14.1748 7.65125 13.8233 7.29972C13.4718 6.9482 12.9952 6.7505 12.498 6.75V5.5C13.3265 5.50099 14.1208 5.83055 14.7067 6.41639C15.2925 7.00222 15.6221 7.7965 15.623 8.625Z" fill="white"/>
<path id="Vector_2" d="M18.1208 8.625H16.8708C16.8694 7.46508 16.4081 6.35306 15.5879 5.53287C14.7677 4.71269 13.6557 4.25132 12.4958 4.25V3C13.9871 3.00165 15.4169 3.59482 16.4714 4.64935C17.5259 5.70389 18.1191 7.13367 18.1208 8.625ZM16.8708 18.625H16.7645C4.48325 17.9187 2.7395 7.55625 2.49575 4.39375C2.45765 3.89797 2.61805 3.40736 2.94166 3.02983C3.26528 2.6523 3.7256 2.41878 4.22138 2.38063C4.27096 2.37688 4.32075 2.375 4.37075 2.375H7.6645C7.91485 2.37476 8.1595 2.44969 8.36677 2.5901C8.57404 2.73051 8.73437 2.92992 8.827 3.1625L9.777 5.5C9.86847 5.72722 9.89117 5.9763 9.84228 6.21631C9.79339 6.45631 9.67506 6.67667 9.502 6.85L8.17075 8.19375C8.37785 9.37583 8.94349 10.4656 9.79096 11.3153C10.6384 12.165 11.7267 12.7335 12.9083 12.9438L14.2645 11.6C14.4404 11.4288 14.6629 11.3133 14.9041 11.2677C15.1452 11.2221 15.3945 11.2486 15.6208 11.3438L17.977 12.2875C18.2061 12.3831 18.4015 12.5446 18.5384 12.7517C18.6753 12.9587 18.7475 13.2018 18.7458 13.45V16.75C18.7458 17.2473 18.5482 17.7242 18.1966 18.0758C17.8449 18.4275 17.368 18.625 16.8708 18.625ZM4.37075 3.625C4.28867 3.62475 4.20735 3.64068 4.13143 3.67186C4.05551 3.70304 3.98647 3.74887 3.92826 3.80673C3.87005 3.86459 3.8238 3.93336 3.79217 4.00909C3.76053 4.08483 3.74412 4.16605 3.74388 4.24813C3.74388 4.26563 3.7445 4.28292 3.74575 4.3C4.03325 8 5.877 16.75 16.8333 17.375C16.9987 17.3849 17.1613 17.3287 17.2853 17.2188C17.4093 17.1088 17.4845 16.9542 17.4945 16.7887L17.4958 16.75V13.45L15.1395 12.5062L13.3458 14.2875L13.0458 14.25C7.60825 13.5688 6.87075 8.13125 6.87075 8.075L6.83325 7.775L8.60825 5.98125L7.67075 3.625H4.37075Z" fill="white"/>
</g>
</svg>
