<svg width="18" height="18" viewBox="0 0 18 18" fill="none" xmlns="http://www.w3.org/2000/svg">
<g id="fluent:search-28-filled">
<path id="Vector" d="M7.39056 1.60718C6.46637 1.60728 5.55565 1.82877 4.73465 2.25312C3.91364 2.67746 3.20623 3.29231 2.67164 4.04619C2.13705 4.80007 1.79084 5.67105 1.66198 6.58621C1.53313 7.50137 1.62538 8.43408 1.93101 9.30627C2.23665 10.1785 2.74677 10.9647 3.41869 11.5993C4.0906 12.2338 4.90475 12.6982 5.79297 12.9535C6.6812 13.2088 7.61766 13.2476 8.52396 13.0666C9.43026 12.8857 10.28 12.4903 11.0021 11.9135L15.2932 16.2045C15.4144 16.3216 15.5768 16.3864 15.7454 16.385C15.9139 16.3835 16.0752 16.3159 16.1944 16.1967C16.3136 16.0775 16.3812 15.9163 16.3826 15.7477C16.3841 15.5792 16.3193 15.4168 16.2022 15.2955L11.9111 11.0045C12.5913 10.1532 13.0172 9.12725 13.14 8.0446C13.2627 6.96196 13.0772 5.86666 12.6049 4.88478C12.1325 3.9029 11.3925 3.07436 10.4701 2.49451C9.5476 1.91466 8.48014 1.60708 7.39056 1.60718ZM2.89056 7.39289C2.89056 6.19942 3.36466 5.05483 4.20858 4.21091C5.05249 3.367 6.19708 2.89289 7.39056 2.89289C8.58403 2.89289 9.72862 3.367 10.5725 4.21091C11.4165 5.05483 11.8906 6.19942 11.8906 7.39289C11.8906 8.58637 11.4165 9.73096 10.5725 10.5749C9.72862 11.4188 8.58403 11.8929 7.39056 11.8929C6.19708 11.8929 5.05249 11.4188 4.20858 10.5749C3.36466 9.73096 2.89056 8.58637 2.89056 7.39289Z" fill="#333333"/>
</g>
</svg>
