<svg width="21" height="21" viewBox="0 0 21 21" fill="none" xmlns="http://www.w3.org/2000/svg">
<g id="ic:round-share">
<path id="Vector" d="M15.5127 13.6735C14.8794 13.6735 14.3127 13.9235 13.8794 14.3152L7.9377 10.8569C7.97936 10.6652 8.0127 10.4735 8.0127 10.2735C8.0127 10.0735 7.97936 9.88185 7.9377 9.69019L13.8127 6.26519C14.2627 6.68185 14.8544 6.94019 15.5127 6.94019C16.896 6.94019 18.0127 5.82352 18.0127 4.44019C18.0127 3.05685 16.896 1.94019 15.5127 1.94019C14.1294 1.94019 13.0127 3.05685 13.0127 4.44019C13.0127 4.64019 13.046 4.83185 13.0877 5.02352L7.2127 8.44852C6.7627 8.03185 6.17103 7.77352 5.5127 7.77352C4.12936 7.77352 3.0127 8.89019 3.0127 10.2735C3.0127 11.6569 4.12936 12.7735 5.5127 12.7735C6.17103 12.7735 6.7627 12.5152 7.2127 12.0985L13.146 15.5652C13.1044 15.7402 13.0794 15.9235 13.0794 16.1069C13.0794 17.4485 14.171 18.5402 15.5127 18.5402C16.8544 18.5402 17.946 17.4485 17.946 16.1069C17.946 14.7652 16.8544 13.6735 15.5127 13.6735Z" fill="white"/>
</g>
</svg>
