<svg width="41" height="41" viewBox="0 0 41 41" fill="none" xmlns="http://www.w3.org/2000/svg">
<circle cx="20.9639" cy="20.3195" r="20" fill="#1DAB7E"/>
<g clip-path="url(#clip0_1_853)">
<path d="M27.8553 24.312C28.1801 24.3934 28.4067 24.437 28.6255 24.5073C29.4048 24.7535 30.085 25.2423 30.5669 25.9024C31.0488 26.5624 31.3073 27.3592 31.3045 28.1764C31.3123 29.3195 31.3123 29.3195 30.1748 29.3195H10.7586C10.0297 29.3195 9.96387 29.2559 9.96387 28.5493C9.96387 26.2386 10.9618 24.9672 13.2546 24.3611C13.2758 24.3555 13.2892 24.3242 13.3071 24.3053C11.7443 23.6009 11.0991 22.5717 11.4005 21.2545C11.5373 20.6827 11.8695 20.1765 12.3396 19.8234C12.8097 19.4702 13.3884 19.2922 13.9757 19.3201C15.0987 19.3714 16.1156 20.2588 16.2997 21.3561C16.4717 22.3764 16.0932 23.7572 14.363 24.2874C14.4613 24.4504 14.6388 24.3901 14.7761 24.4269C15.3968 24.5822 15.9735 24.8782 16.4616 25.292C16.5732 25.3925 16.657 25.4639 16.7965 25.301C17.5852 24.3325 18.714 23.7016 19.9521 23.5373C19.9868 23.5317 20.0158 23.4926 20.0537 23.4647C18.088 22.8072 17.0566 21.3751 17.3312 19.7007C17.6069 18.0096 18.9732 16.8163 20.6353 16.8163C22.2974 16.8163 23.6637 18.0073 23.9417 19.7007C24.2196 21.3941 23.1804 22.8162 21.228 23.4647C21.3709 23.6176 21.5696 23.5652 21.737 23.6054C22.7785 23.8588 23.6738 24.3633 24.3669 25.1826C24.5723 25.4238 24.6806 25.4204 24.9128 25.2184C25.4765 24.7261 26.1652 24.4794 26.9076 24.3175C26.2378 24.0865 25.6674 23.7326 25.2979 23.1176C25.1137 22.8221 24.9952 22.4904 24.9505 22.145C24.9058 21.7997 24.936 21.4488 25.0389 21.1161C25.2012 20.5581 25.5532 20.0743 26.0341 19.7482C26.5151 19.4221 27.0949 19.2742 27.6733 19.3301C28.8097 19.4417 29.7663 20.3582 29.8991 21.4677C30.0565 22.8005 29.3644 23.813 27.8553 24.312ZM20.5996 28.4845C21.8766 28.4845 23.1536 28.4723 24.4306 28.4935C24.7498 28.4935 24.8257 28.4176 24.7945 28.1061C24.6965 27.0694 24.2149 26.1067 23.4441 25.4065C22.6734 24.7063 21.6689 24.3193 20.6276 24.3211C19.5862 24.3229 18.5831 24.7135 17.8148 25.4163C17.0464 26.1192 16.5682 27.0836 16.4739 28.1206C16.4471 28.4019 16.5007 28.4979 16.8088 28.4923C18.0746 28.4734 19.3404 28.4845 20.6018 28.4845H20.5996ZM23.1357 20.1472C23.1361 19.6535 22.9904 19.1708 22.7169 18.7598C22.4434 18.3488 22.0543 18.028 21.5988 17.8377C21.1432 17.6475 20.6416 17.5964 20.157 17.6908C19.6725 17.7852 19.2267 18.021 18.8759 18.3684C18.5251 18.7157 18.285 19.1592 18.1858 19.6428C18.0867 20.1264 18.1329 20.6286 18.3187 21.0859C18.5044 21.5433 18.8214 21.9355 19.2297 22.213C19.638 22.4905 20.1193 22.641 20.613 22.6454C20.9429 22.6477 21.27 22.5849 21.5755 22.4605C21.881 22.3361 22.159 22.1526 22.3934 21.9204C22.6278 21.6883 22.814 21.4122 22.9414 21.1079C23.0688 20.8036 23.1348 20.4771 23.1357 20.1472ZM13.2144 28.4845C13.9355 28.4845 14.6566 28.479 15.3777 28.4845C15.5664 28.4845 15.64 28.4455 15.6479 28.239C15.668 27.6001 15.8232 26.9728 16.1033 26.3982C16.1837 26.2342 16.1468 26.1259 16.0229 25.9997C15.2248 25.1893 13.7759 24.9237 12.6552 25.3914C12.0988 25.6175 11.6235 26.0059 11.2912 26.5061C10.9589 27.0063 10.785 27.595 10.7921 28.1954C10.7921 28.4343 10.8613 28.4946 11.0924 28.4901C11.8001 28.4756 12.5067 28.4845 13.2144 28.4845ZM28.0461 28.4845C28.7527 28.4845 29.4604 28.47 30.167 28.4923C30.4372 28.5002 30.4796 28.4097 30.4796 28.1653C30.4802 27.5728 30.3046 26.9935 29.975 26.5011C29.6454 26.0088 29.1768 25.6256 28.6288 25.4003C27.5126 24.9281 26.0748 25.1882 25.2577 25.9953C25.0947 26.156 25.1171 26.2822 25.2019 26.4663C25.4593 27.0055 25.6012 27.5926 25.6183 28.1898C25.6183 28.4711 25.7377 28.4935 25.9654 28.489C26.6586 28.4767 27.3518 28.4845 28.0473 28.4845H28.0461ZM13.8473 23.4826C14.1764 23.4828 14.4981 23.3855 14.772 23.203C15.0458 23.0206 15.2594 22.7611 15.3859 22.4573C15.5124 22.1535 15.5461 21.8191 15.4827 21.4962C15.4192 21.1733 15.2616 20.8764 15.0296 20.643C14.7976 20.4096 14.5017 20.2502 14.1792 20.1848C13.8567 20.1195 13.5221 20.1511 13.2175 20.2758C12.913 20.4004 12.6522 20.6125 12.4681 20.8852C12.284 21.158 12.1848 21.4791 12.183 21.8082C12.1821 22.0275 12.2245 22.2448 12.3077 22.4477C12.3909 22.6506 12.5133 22.835 12.6679 22.9906C12.8225 23.1461 13.0062 23.2696 13.2086 23.354C13.411 23.4385 13.628 23.4821 13.8473 23.4826ZM29.0887 21.845C29.0928 21.5179 29.0001 21.197 28.8221 20.9225C28.6441 20.648 28.389 20.4323 28.0887 20.3026C27.7884 20.1728 27.4564 20.1348 27.1346 20.1934C26.8128 20.2519 26.5154 20.4043 26.2801 20.6315C26.0447 20.8587 25.8818 21.1504 25.8119 21.4699C25.742 21.7895 25.7681 22.1226 25.8871 22.4273C26.0061 22.732 26.2126 22.9947 26.4806 23.1823C26.7486 23.3698 27.0661 23.4739 27.3931 23.4815C27.835 23.4892 28.2618 23.3212 28.5798 23.0143C28.8977 22.7075 29.0808 22.2869 29.0887 21.845Z" fill="white"/>
<path d="M18.4003 15.278C18.4862 14.759 18.5588 14.231 18.6704 13.7231C18.696 13.6329 18.6935 13.537 18.6632 13.4482C18.6329 13.3595 18.5762 13.2821 18.5007 13.2264C18.1659 12.9149 17.8444 12.5879 17.5151 12.2708C17.3677 12.1302 17.2483 11.9829 17.3075 11.7629C17.3733 11.5185 17.5787 11.4671 17.7886 11.4359C18.2407 11.3667 18.6916 11.2863 19.1459 11.2472C19.2411 11.2452 19.3333 11.2137 19.4098 11.1571C19.4864 11.1005 19.5435 11.0217 19.5735 10.9313C19.7688 10.4982 19.9909 10.083 20.193 9.65434C20.2823 9.4668 20.3939 9.31946 20.6183 9.31946C20.8426 9.31946 20.9599 9.47239 21.0492 9.65434C21.2478 10.064 21.4577 10.4703 21.6452 10.8822C21.7446 11.1055 21.8685 11.2238 22.133 11.2417C22.5606 11.2707 22.9847 11.3533 23.4089 11.4169C23.6322 11.4515 23.8554 11.4883 23.9347 11.7518C24.0139 12.0152 23.851 12.1402 23.7025 12.2876C23.3855 12.5979 23.0774 12.9183 22.7459 13.213C22.6656 13.2775 22.6066 13.3647 22.5765 13.4633C22.5465 13.5618 22.5467 13.6671 22.5773 13.7655C22.6688 14.2276 22.757 14.6909 22.814 15.1575C22.8709 15.6241 22.5784 15.8339 22.1442 15.6219C21.71 15.4098 21.2813 15.182 20.8605 14.9421C20.788 14.8929 20.7025 14.8666 20.6149 14.8666C20.5274 14.8666 20.4418 14.8929 20.3694 14.9421C19.9374 15.1887 19.4953 15.4198 19.0477 15.6364C18.7139 15.8038 18.4114 15.6241 18.4003 15.278ZM22.632 12.1659C21.5158 12.2463 20.8985 11.735 20.6596 10.6166C20.4787 10.9782 20.337 11.197 20.2566 11.437C20.1171 11.8467 19.8402 12.023 19.4228 12.0487C19.1705 12.0643 18.9193 12.1202 18.6291 12.1603C18.792 12.3503 18.9685 12.5283 19.1571 12.6928C19.5411 12.9819 19.6304 13.3268 19.5087 13.7856C19.4596 13.9687 19.2687 14.2321 19.4328 14.3582C19.6449 14.5212 19.8793 14.2812 20.0557 14.1596C20.4542 13.8939 20.8159 13.9039 21.2021 14.1741C21.3927 14.2932 21.5911 14.3995 21.7959 14.4922L21.9009 14.471C21.4823 13.501 21.6921 12.7419 22.632 12.1659Z" fill="white"/>
<path d="M14.8058 17.8377C14.6781 17.8428 14.5529 17.8007 14.4542 17.7193C13.8369 17.2349 13.2263 17.1925 12.6046 17.7104C12.5602 17.7437 12.5109 17.7697 12.4583 17.7874C12.0721 17.9381 11.7194 17.697 11.8433 17.313C12.1134 16.4725 11.9315 15.8463 11.2048 15.3194C10.8565 15.0671 11.0161 14.5871 11.4448 14.5815C12.3043 14.5704 12.8781 14.2467 13.1069 13.386C13.1279 13.2964 13.1784 13.2165 13.2502 13.159C13.3221 13.1015 13.4111 13.0698 13.5032 13.069C13.6024 13.063 13.7006 13.0923 13.7803 13.1518C13.8599 13.2112 13.916 13.297 13.9385 13.3938C14.1729 14.2221 14.7054 14.6094 15.5649 14.5693C15.6566 14.5612 15.7481 14.5855 15.8238 14.6379C15.8994 14.6903 15.9544 14.7675 15.979 14.8561C16.0134 14.9415 16.0173 15.036 15.99 15.1239C15.9628 15.2117 15.9061 15.2875 15.8294 15.3384C15.1106 15.8284 14.8963 16.4546 15.1965 17.2896C15.2992 17.5798 15.1418 17.8031 14.8058 17.8377ZM12.2753 15.3127C12.9294 15.6353 12.9696 16.1008 12.8088 16.6689C13.2866 16.2448 13.742 16.295 14.2287 16.6421C14.0055 16.0684 14.193 15.6476 14.6607 15.2803C14.0122 15.3328 13.7063 14.9812 13.5311 14.4364C13.1348 15.1475 13.1348 15.1475 12.2753 15.3127Z" fill="white"/>
<path d="M25.9901 17.419C26.0459 17.0741 26.0816 16.7414 26.1587 16.4143C26.1852 16.3298 26.1842 16.2389 26.156 16.1549C26.1277 16.0709 26.0735 15.998 26.0013 15.9466C25.7713 15.7455 25.5533 15.5312 25.3483 15.3048C25.0737 15 25.2009 14.6507 25.6061 14.5647C25.6199 14.5636 25.6337 14.5636 25.6474 14.5647C26.5058 14.6149 27.0394 14.2198 27.2749 13.396C27.2964 13.2983 27.3523 13.2116 27.4325 13.1517C27.5126 13.0919 27.6116 13.0629 27.7114 13.07C27.8037 13.0699 27.8933 13.1007 27.966 13.1576C28.0386 13.2145 28.0901 13.2941 28.1121 13.3837C28.3432 14.241 28.9114 14.6004 29.7742 14.5725C29.8588 14.5689 29.9422 14.5938 30.011 14.6432C30.0798 14.6925 30.1301 14.7636 30.1538 14.8449C30.1913 14.929 30.1981 15.0237 30.1727 15.1123C30.1474 15.2009 30.0917 15.2778 30.0153 15.3293C29.3009 15.8194 29.0531 16.4456 29.378 17.2772C29.4125 17.363 29.4162 17.4582 29.3883 17.5463C29.3604 17.6345 29.3026 17.7103 29.225 17.7606C29.153 17.8178 29.0637 17.8489 28.9716 17.8489C28.8796 17.8489 28.7903 17.8178 28.7182 17.7606C28.034 17.2169 27.3787 17.2415 26.6721 17.7483C26.3373 17.9827 25.9957 17.7695 25.9901 17.419ZM27.6824 14.4642C27.5172 15.0469 27.1521 15.3148 26.5214 15.297C27.1142 15.6319 27.1309 16.1051 26.9892 16.6711C27.4647 16.2246 27.919 16.3105 28.4224 16.6398C28.1322 16.046 28.4102 15.6531 28.8265 15.2746C28.1947 15.3238 27.8788 15.0045 27.6824 14.4642Z" fill="white"/>
<path d="M22.2435 25.6426C22.341 25.6424 22.4358 25.6742 22.5136 25.733C22.9858 26.0522 23.3674 26.4884 23.6209 26.9989C23.7404 27.2377 23.7125 27.4677 23.4513 27.6005C23.2079 27.7244 23.017 27.6162 22.8931 27.3974C22.683 27.0061 22.3873 26.6673 22.028 26.4061C21.8639 26.2878 21.7612 26.1237 21.855 25.9038C21.8816 25.8233 21.9342 25.754 22.0045 25.7067C22.0748 25.6594 22.1589 25.6368 22.2435 25.6426Z" fill="white"/>
<path d="M21.0558 25.571C20.9978 25.8367 20.8582 25.9996 20.5948 25.9728C20.5419 25.9719 20.4899 25.9598 20.442 25.9373C20.3941 25.9149 20.3515 25.8826 20.317 25.8425C20.2824 25.8025 20.2567 25.7557 20.2415 25.705C20.2263 25.6544 20.2219 25.6011 20.2287 25.5487C20.2274 25.4923 20.2386 25.4363 20.2615 25.3847C20.2843 25.3332 20.3183 25.2873 20.361 25.2504C20.4036 25.2135 20.4539 25.1865 20.5082 25.1713C20.5625 25.1561 20.6196 25.1531 20.6752 25.1624C20.9163 25.1825 21.0234 25.3578 21.0558 25.571Z" fill="white"/>
</g>
<defs>
<clipPath id="clip0_1_853">
<rect width="21.3451" height="20" fill="white" transform="translate(9.96387 9.31946)"/>
</clipPath>
</defs>
</svg>
