<svg width="41" height="41" viewBox="0 0 41 41" fill="none" xmlns="http://www.w3.org/2000/svg">
<circle cx="20.9639" cy="20.3195" r="20" fill="#1DAB7E"/>
<g clip-path="url(#clip0_1_825)">
<path d="M25.6045 25.219C26.2213 24.779 26.8099 24.3569 27.4007 23.937C27.8774 23.6019 28.396 23.4378 28.9823 23.5785C29.6511 23.7371 30.1222 24.1212 30.2973 24.7846C30.4791 25.4736 30.2396 26.0465 29.677 26.4742C28.9077 27.0572 28.126 27.6223 27.3499 28.1963C27.1632 28.3195 26.9841 28.4533 26.8132 28.5972C25.6835 29.6592 24.285 29.9183 22.8039 29.9105C21.472 29.9038 20.1333 30.0077 18.816 29.6994C17.8106 29.4638 16.8854 29.0405 15.9805 28.5659C15.8494 28.5132 15.7332 28.4301 15.6416 28.3236C15.114 27.5139 14.2938 27.8054 13.5618 27.7652C13.4929 27.7652 13.4059 27.7652 13.3833 27.8389C13.2624 28.2465 12.9314 28.1829 12.623 28.1829C11.6108 28.1829 10.5986 28.1829 9.58634 28.1829C9.0983 28.1773 8.96387 28.05 8.96387 27.5642C8.96387 26.0499 8.96387 24.5359 8.96387 23.0223C8.96387 22.5209 9.07684 22.4104 9.58182 22.4092C10.6505 22.4092 11.7192 22.4092 12.7868 22.4092C13.0353 22.4092 13.2737 22.4148 13.3663 22.7041C13.4138 22.8481 13.5313 22.8247 13.6431 22.8314C14.1311 22.8604 14.6192 22.799 15.1117 22.8749C15.297 22.9028 15.5184 22.7219 15.7184 22.627C16.5419 22.2384 17.3836 21.957 18.3167 22.1703C18.7393 22.2696 19.1488 22.4173 19.5368 22.6103C19.958 22.7996 20.3667 23.0152 20.7603 23.2557C21.6314 23.8514 22.6912 24.1152 23.7438 23.9984C24.6724 23.899 25.3367 24.2485 25.6045 25.219ZM21.6979 29.0807C22.134 29.0807 22.5712 29.1031 23.005 29.0807C23.8568 29.0271 24.7481 29.0394 25.4768 28.5302C26.7195 27.6658 27.9113 26.7434 29.1269 25.85C29.407 25.6434 29.5788 25.3899 29.4952 25.0314C29.4116 24.6729 29.145 24.4797 28.797 24.3904C28.4491 24.301 28.1644 24.4295 27.8932 24.6204C27.229 25.085 26.5466 25.5283 25.9038 26.0197C25.2915 26.4865 24.6114 26.7188 23.8704 26.9232C21.7002 27.5195 19.7763 26.8416 17.866 25.9739C17.8138 25.9565 17.766 25.9282 17.7259 25.8908C17.6859 25.8534 17.6544 25.8079 17.6338 25.7574C17.6132 25.707 17.6039 25.6526 17.6066 25.5983C17.6092 25.5439 17.6237 25.4907 17.6491 25.4424C17.7485 25.1944 17.9484 25.1263 18.1981 25.2123C18.3438 25.2626 18.485 25.324 18.6285 25.3809C19.4351 25.697 20.2237 26.0666 21.08 26.2408C22.265 26.4821 23.3902 26.1012 24.5324 25.9058C24.677 25.8812 24.7233 25.7606 24.7447 25.6288C24.8148 25.2168 24.5855 24.7589 23.9969 24.8337C22.5463 25.0202 21.2585 24.6104 20.0632 23.8286C19.9006 23.717 19.7243 23.6399 19.547 23.5483C19.156 23.3313 18.7419 23.1579 18.3122 23.0313C17.1983 22.7309 16.2923 23.2658 15.375 23.746C15.2417 23.8164 15.2959 23.9425 15.2947 24.0442C15.2947 24.6137 15.3083 25.1833 15.2891 25.7528C15.2529 26.8439 15.8246 27.5318 16.7487 28.0209C18.26 28.8398 19.9794 29.2072 21.6979 29.0785V29.0807ZM9.81002 25.2592C9.81002 25.869 9.8168 26.4787 9.81002 27.0885C9.81002 27.2805 9.85182 27.3531 10.0619 27.3487C10.8053 27.3364 11.5498 27.3353 12.2931 27.3487C12.5247 27.3487 12.5699 27.2682 12.5688 27.0605C12.5597 25.8812 12.5597 24.7027 12.5688 23.5249C12.5688 23.3093 12.5066 23.2379 12.2841 23.2412C11.5554 23.2535 10.8256 23.258 10.0958 23.2412C9.836 23.2345 9.8055 23.3406 9.81002 23.555C9.81793 24.1223 9.81002 24.6908 9.81002 25.2592ZM14.4418 25.276V24.358C14.4418 23.6578 14.4418 23.6712 13.7437 23.66C13.4714 23.66 13.3855 23.7259 13.3934 24.0017C13.4138 24.7243 13.4002 25.4468 13.4002 26.1694C13.4002 26.9801 13.4002 26.9723 14.2057 26.9299C14.3876 26.9198 14.4497 26.8763 14.4452 26.6931C14.4384 26.2241 14.4463 25.7483 14.4463 25.276H14.4418Z" fill="white"/>
<path d="M17.7847 16.238C17.831 12.6901 20.7027 9.87807 24.2387 9.91939C25.0829 9.92986 25.9167 10.1051 26.6921 10.4351C27.4676 10.7652 28.1694 11.2434 28.7573 11.8424C29.3452 12.4414 29.8075 13.1493 30.1178 13.9255C30.428 14.7017 30.58 15.5309 30.5651 16.3653C30.5199 19.7915 27.5668 22.6259 24.111 22.5577C20.5785 22.4874 17.7406 19.653 17.7847 16.238ZM27.5137 20.5934C28.4938 19.862 29.2 18.8293 29.5213 17.6577C29.8426 16.4862 29.7607 15.2423 29.2885 14.1218C28.291 11.7609 25.8384 10.4432 23.1982 10.8407C20.8914 11.188 18.9223 13.2853 18.667 15.5903C18.3936 18.0192 19.8667 20.0819 20.8473 20.5163C20.8473 19.8336 20.8473 19.1524 20.8473 18.4726C20.8473 18.084 20.8179 17.6909 21.0586 17.3481C21.1732 17.1898 21.32 17.0571 21.4897 16.9584C21.6594 16.8597 21.8481 16.7973 22.0437 16.7752C20.8823 15.2117 20.9309 13.6482 22.1499 12.517C22.6791 12.0302 23.3694 11.7504 24.092 11.7299C24.8146 11.7093 25.5201 11.9494 26.0767 12.4053C27.3782 13.4673 27.4719 14.9939 26.3445 16.745C27.3092 17.0957 27.5137 17.3927 27.5137 18.4436V20.5934ZM24.2026 17.615C23.5699 17.615 22.9373 17.615 22.3046 17.615C21.8302 17.615 21.6957 17.7501 21.6935 18.2035C21.6935 19.0969 21.6935 19.9814 21.6935 20.8703C21.6935 21.0579 21.7375 21.1707 21.9262 21.2478C22.6355 21.5543 23.4013 21.7126 24.1754 21.7126C24.9496 21.7126 25.7154 21.5543 26.4247 21.2478C26.5046 21.2282 26.5745 21.1806 26.6215 21.1138C26.6685 21.0471 26.6893 20.9657 26.68 20.8848C26.6664 19.9914 26.68 19.107 26.6721 18.218C26.6721 17.7646 26.5241 17.6217 26.0621 17.6161C25.4396 17.6094 24.8205 17.615 24.2026 17.615ZM24.1913 12.5706C23.7697 12.5688 23.3572 12.6908 23.0059 12.9211C22.6546 13.1514 22.3804 13.4797 22.218 13.8642C22.0557 14.2488 22.0125 14.6723 22.094 15.0812C22.1754 15.49 22.3779 15.8657 22.6756 16.1607C22.9734 16.4556 23.353 16.6566 23.7664 16.738C24.1798 16.8194 24.6084 16.7776 24.9977 16.6179C25.3871 16.4583 25.7197 16.1879 25.9535 15.8411C26.1872 15.4943 26.3115 15.0868 26.3106 14.6701C26.3079 14.1148 26.0839 13.583 25.6872 13.19C25.2904 12.797 24.7529 12.5744 24.1913 12.5706Z" fill="white"/>
<path d="M16.5032 24.5835C16.7901 24.5891 16.937 24.7421 16.9381 24.9922C16.9426 25.0479 16.9346 25.1038 16.9147 25.156C16.8949 25.2082 16.8636 25.2555 16.8231 25.2944C16.7827 25.3333 16.7341 25.3629 16.6807 25.3812C16.6274 25.3994 16.5706 25.4058 16.5145 25.3998C16.4085 25.396 16.3081 25.352 16.234 25.277C16.1598 25.2021 16.1177 25.1018 16.1162 24.997C16.1148 24.8922 16.1541 24.7908 16.2262 24.7138C16.2982 24.6369 16.3974 24.5902 16.5032 24.5835Z" fill="white"/>
</g>
<defs>
<clipPath id="clip0_1_825">
<rect width="21.6" height="20" fill="white" transform="translate(8.96387 9.91943)"/>
</clipPath>
</defs>
</svg>
