<svg width="41" height="41" viewBox="0 0 41 41" fill="none" xmlns="http://www.w3.org/2000/svg">
<circle cx="20.9639" cy="20.3195" r="20" fill="#1DAB7E"/>
<g clip-path="url(#clip0_1_843)">
<path d="M19.1142 9.31946C19.4301 9.31969 19.7428 9.38185 20.0348 9.50242C20.4426 9.65632 20.8926 9.65632 21.3005 9.50242C22.4512 9.10543 23.3856 9.36088 24.2037 10.2883C24.4742 10.6077 24.8471 10.8233 25.2589 10.8982C26.4786 11.1283 27.2151 11.8475 27.4222 13.0845C27.4927 13.4835 27.7057 13.8434 28.0217 14.0971C28.9618 14.8865 29.2218 15.868 28.8111 17.0291C28.6684 17.4219 28.6684 17.8525 28.8111 18.2453C29.2126 19.4317 28.9641 20.3603 28.0205 21.1738C27.6879 21.4516 27.4699 21.8426 27.4084 22.2716C27.345 22.7725 27.1128 23.2368 26.7502 23.588C26.5488 23.7732 26.6063 23.9033 26.7145 24.0885C27.5507 25.5215 28.3834 26.956 29.2126 28.3921C29.3415 28.6153 29.5084 28.8374 29.2966 29.0975C29.1045 29.3345 28.8674 29.2528 28.6269 29.1861C28.0194 29.0158 27.4049 28.8696 26.8008 28.6901C26.5304 28.6107 26.3981 28.6303 26.3279 28.9479C26.1875 29.5888 25.9965 30.2136 25.8262 30.8534C25.764 31.0836 25.6777 31.2976 25.3958 31.3218C25.1381 31.3425 25.0184 31.163 24.9068 30.9696C24.0691 29.5209 23.1807 28.0998 22.4144 26.6143C22.0508 25.9112 21.4743 25.7835 20.8402 25.6535C20.3351 25.5511 19.8955 25.8525 19.418 25.9342C19.2891 25.9561 19.2592 26.1264 19.1959 26.2357C18.2907 27.7899 17.3866 29.3468 16.4837 30.9064C16.3595 31.1204 16.2467 31.3517 15.9429 31.316C15.6391 31.2803 15.5793 31.0283 15.5149 30.7913C15.3469 30.1711 15.157 29.5555 15.0235 28.9283C14.9579 28.6199 14.8221 28.6153 14.5805 28.6821C13.9453 28.8593 13.3044 29.0169 12.6715 29.1987C12.4322 29.2666 12.2193 29.3 12.0501 29.0837C11.881 28.8673 11.9926 28.6579 12.1123 28.4531C12.9385 27.032 13.7555 25.604 14.5886 24.1875C14.7347 23.9401 14.7991 23.7779 14.5414 23.5431C14.2071 23.223 13.9943 22.7968 13.9396 22.3372C13.8664 21.8519 13.6144 21.4115 13.233 21.1025C12.3735 20.3638 12.1134 19.3765 12.4931 18.3109C12.6577 17.8649 12.6553 17.3744 12.4862 16.9301C12.1215 15.8945 12.3896 14.8692 13.2192 14.1685C13.5978 13.8594 13.8533 13.4251 13.9396 12.9441C14.1559 11.851 14.8233 11.1686 15.9164 10.9396C16.4273 10.8512 16.8897 10.583 17.2202 10.1836C17.7046 9.59908 18.3617 9.34132 19.1142 9.31946ZM22.1727 25.0678C22.4327 25.0792 22.6916 25.0278 22.9275 24.918C23.1634 24.8083 23.3695 24.6434 23.5282 24.4372C23.9267 23.9392 24.4959 23.6071 25.1254 23.5051C25.9573 23.3532 26.3912 22.9217 26.5592 22.0737C26.6731 21.4487 27.005 20.8844 27.4958 20.4811C28.1218 19.9576 28.2863 19.3304 28.0102 18.5572C27.7876 17.9637 27.7876 17.3096 28.0102 16.7161C28.2909 15.9451 28.1183 15.2835 27.4751 14.7599C26.979 14.3597 26.6506 13.7883 26.5546 13.1582C26.4199 12.3745 25.9458 11.9039 25.1737 11.767C24.5185 11.658 23.9245 11.3164 23.5006 10.805C22.9897 10.2055 22.3499 10.0386 21.6008 10.3114C20.9918 10.5421 20.3193 10.5421 19.7103 10.3114C18.9577 10.0329 18.3363 10.202 17.8174 10.8154C17.4047 11.3176 16.8236 11.6529 16.1823 11.7589C15.4124 11.8924 14.9165 12.3458 14.7796 13.1294C14.6679 13.7984 14.3146 14.4032 13.7865 14.829C13.2273 15.2915 13.0351 15.9117 13.286 16.5999C13.5397 17.2582 13.5397 17.9874 13.286 18.6458C13.0328 19.3362 13.2158 19.9564 13.7716 20.4282C14.2998 20.8528 14.6559 21.4546 14.7738 22.122C14.9165 22.916 15.409 23.3728 16.2076 23.5028C16.8079 23.5988 17.3539 23.907 17.746 24.3716C18.3559 25.0747 18.9151 25.2174 19.8173 24.9124C20.3624 24.718 20.9579 24.718 21.503 24.9124C21.7142 25.0067 21.9416 25.0594 22.1727 25.0678ZM27.9711 28.1217C27.9814 28.0849 28.0044 28.0515 27.9952 28.0365C27.2987 26.823 26.6017 25.6105 25.9044 24.3992C25.8503 24.306 25.7893 24.2416 25.6674 24.2703C25.1944 24.3785 24.6835 24.4188 24.3475 24.8215C23.9835 25.2889 23.4955 25.6445 22.9391 25.8479L25.214 29.766C25.3763 29.178 25.5143 28.6683 25.657 28.1608C25.7997 27.6534 25.9194 27.5774 26.4176 27.7005C26.9366 27.8455 27.4532 27.9825 27.9711 28.1217ZM18.4203 25.8502C17.8806 25.6754 17.4059 25.3422 17.0579 24.894C16.7127 24.4522 16.1846 24.3797 15.6771 24.2726C15.5459 24.245 15.4964 24.3279 15.447 24.4153C14.7566 25.6132 14.0661 26.8134 13.3412 28.0596C13.9407 28.0342 14.4424 27.8122 14.9648 27.6982C15.4251 27.597 15.5632 27.6626 15.6886 28.1033C15.8382 28.6303 15.9809 29.1596 16.1489 29.7672L18.4203 25.8502Z" fill="white"/>
<path d="M20.692 23.3579C18.0455 23.3579 15.8062 21.572 15.201 18.9634C14.6256 16.4722 15.9247 13.8417 18.2894 12.7278L18.485 12.6404C18.7669 12.5184 19.035 12.5069 19.1754 12.8349C19.302 13.1444 19.1052 13.317 18.8429 13.4275C18.0409 13.7548 17.3463 14.2996 16.8372 15.0005C16.2397 15.8226 15.9242 16.816 15.9379 17.8323C15.9515 18.8485 16.2937 19.8331 16.9132 20.6388C17.5393 21.4529 18.4116 22.043 19.4003 22.3211C20.3889 22.5991 21.441 22.5503 22.3997 22.1819C24.3558 21.4247 25.6216 19.4329 25.4064 17.3571C25.2246 15.5689 24.2891 14.2732 22.6666 13.4769C22.546 13.4312 22.4304 13.3734 22.3214 13.3043C22.2483 13.2558 22.1943 13.1833 22.1687 13.0994C22.1431 13.0154 22.1474 12.9252 22.181 12.8441C22.2057 12.7523 22.2634 12.6729 22.343 12.6211C22.4227 12.5693 22.5187 12.5487 22.6125 12.5633C22.7671 12.5912 22.9167 12.6416 23.0567 12.7129C25.4191 13.8095 26.7389 16.4423 26.1636 18.9381C25.8944 20.1894 25.2045 21.3106 24.2088 22.1149C23.2132 22.9191 21.9719 23.3578 20.692 23.3579Z" fill="white"/>
<path d="M24.1227 16.7116C24.1048 16.855 24.0317 16.9859 23.919 17.0763C22.8036 18.1879 21.6882 19.3002 20.5728 20.4133C20.3081 20.678 20.0596 20.6768 19.7949 20.4133C19.0171 19.6309 18.2357 18.8522 17.451 18.0774C17.1886 17.8185 17.1598 17.5734 17.436 17.3053C17.8364 16.9149 18.2323 16.5209 18.6235 16.1236C18.887 15.8543 19.1402 15.8532 19.3991 16.1236L19.4302 16.1535C19.6983 16.3836 19.9134 16.8577 20.2057 16.8243C20.498 16.791 20.7235 16.3721 20.9767 16.1201C21.3127 15.7876 21.6464 15.4539 21.9812 15.119C22.1941 14.9038 22.4346 14.8429 22.6647 15.073C23.125 15.5091 23.5611 15.9579 24.0041 16.4055C24.0442 16.4454 24.0755 16.4932 24.0959 16.546C24.1163 16.5987 24.1254 16.6551 24.1227 16.7116ZM23.0606 16.6897C22.9823 16.6069 22.9167 16.5344 22.8488 16.4596C22.3575 15.9533 22.3575 15.9533 21.8708 16.4377C21.4346 16.8715 20.9962 17.3042 20.5624 17.7414C20.3127 17.9934 20.0688 17.9969 19.8168 17.7506C19.7144 17.6494 19.6143 17.5481 19.513 17.4469C18.9929 16.9291 18.9986 16.9337 18.4774 17.4699C18.3324 17.6195 18.2875 17.7081 18.4636 17.8749C18.9822 18.3674 19.4896 18.8722 19.9859 19.3892C20.1505 19.5595 20.2391 19.5285 20.3887 19.3777C21.2034 18.5515 22.0284 17.7357 22.8488 16.9164C22.9213 16.852 22.9835 16.7749 23.0606 16.6897Z" fill="white"/>
<path d="M21.1131 12.6218C21.0774 12.8773 20.9463 13.0384 20.6689 13.0338C20.6152 13.0377 20.5612 13.0302 20.5104 13.0119C20.4597 12.9937 20.4134 12.9649 20.3745 12.9276C20.3355 12.8903 20.3048 12.8453 20.2844 12.7954C20.264 12.7455 20.2542 12.6918 20.2558 12.6379C20.2488 12.5806 20.2545 12.5224 20.2725 12.4675C20.2904 12.4126 20.3202 12.3623 20.3597 12.3202C20.3992 12.278 20.4475 12.2451 20.5011 12.2236C20.5547 12.2022 20.6124 12.1928 20.6701 12.1961C20.929 12.188 21.0832 12.3514 21.1131 12.6218Z" fill="white"/>
</g>
<defs>
<clipPath id="clip0_1_843">
<rect width="17.4364" height="22" fill="white" transform="translate(11.9639 9.31946)"/>
</clipPath>
</defs>
</svg>
