<svg width="41" height="41" viewBox="0 0 41 41" fill="none" xmlns="http://www.w3.org/2000/svg">
<circle cx="20.9639" cy="20.3195" r="20" fill="#1DAB7E"/>
<g clip-path="url(#clip0_1_834)">
<path d="M22.4868 30.3195H15.5749C14.5146 30.3195 14.0052 29.8192 14.0029 28.7797C14.0029 27.7918 14.0029 26.8052 14.0029 25.8173C14.0029 24.5616 14.5817 23.6681 15.6907 23.0977C16.6028 22.6296 17.6192 22.5572 18.5962 22.3387C19.0592 22.2363 19.5292 22.1639 19.9934 22.0685C20.1346 22.0386 20.3673 22.0823 20.3696 21.8799C20.3696 21.6246 20.5177 21.3118 20.2538 21.1151C19.5128 20.5774 19.014 19.7722 18.8647 18.8727C18.8583 18.8171 18.8344 18.7649 18.7963 18.7236C18.7583 18.6823 18.7081 18.654 18.6529 18.6427C18.154 18.4875 17.9583 18.1149 17.978 17.6215C17.9884 17.3294 17.9526 17.1041 17.6967 16.8798C17.2684 16.5026 17.3923 15.8448 17.9086 15.5401C18.0556 15.4527 18.1331 15.3849 18.1401 15.1951C18.2558 12.6065 20.1635 10.8908 22.7704 11.0253C25.1179 11.1426 26.7721 12.8158 26.8659 15.1721C26.8601 15.2462 26.8772 15.3204 26.9148 15.3846C26.9524 15.4489 27.0088 15.5003 27.0765 15.532C27.6553 15.869 27.7306 16.5394 27.2224 16.958C27.0106 17.1316 27.021 17.3122 27.0268 17.5203C27.0418 18.0551 26.889 18.4852 26.3172 18.6496C26.1563 18.6956 26.1377 18.8186 26.1169 18.944C25.9803 19.7872 25.5134 20.5425 24.8181 21.045C24.4975 21.2842 24.6375 21.5947 24.6445 21.8684C24.6445 22.1168 24.9281 22.042 25.0925 22.0754C26.2026 22.3053 27.3266 22.4882 28.4251 22.7653C29.5757 23.0563 30.5087 23.6589 30.8792 24.8767C30.9694 25.1934 31.0123 25.5216 31.0065 25.8507C31.0065 26.8523 31.0065 27.8539 31.0065 28.8556C31.0065 29.7905 30.4682 30.316 29.5294 30.3172C27.1811 30.3202 24.8335 30.321 22.4868 30.3195ZM30.3386 27.2261C30.3386 26.6833 30.3444 26.1393 30.3386 25.5954C30.3293 24.8698 29.9994 24.3109 29.4056 23.9004C28.9587 23.5933 28.9425 23.5991 28.8002 24.097C28.7608 24.235 28.7261 24.373 28.6925 24.5121C28.4801 25.3435 28.3586 26.1952 28.3302 27.0524C28.3302 27.2318 28.2908 27.4043 28.0987 27.4687C28.0375 27.4906 27.9708 27.4926 27.9084 27.4744C27.846 27.4562 27.791 27.4188 27.7514 27.3675C27.6356 27.2295 27.6715 27.0685 27.6819 26.9156C27.7414 25.8303 27.9358 24.7565 28.2607 23.7187C28.351 23.445 28.2769 23.3449 28.0095 23.2966C27.4007 23.1897 26.7941 23.0735 26.191 22.9424C25.9595 22.8941 25.8576 22.9873 25.7407 23.1586C24.9304 24.3373 24.1062 25.5103 23.2866 26.6833C23.008 27.069 22.8524 27.5289 22.8398 28.0034C22.8282 28.4634 22.8398 28.9234 22.8317 29.3765C22.8248 29.5938 22.8838 29.6778 23.1176 29.6766C24.5422 29.6674 25.9676 29.6674 27.3937 29.6766C27.631 29.6766 27.6831 29.5915 27.6715 29.3799C27.6565 29.0947 27.6715 28.805 27.6715 28.5221C27.6715 28.307 27.7537 28.1575 27.991 28.1506C28.2283 28.1437 28.3186 28.3001 28.3244 28.5106C28.3325 28.7958 28.3371 29.0855 28.3244 29.3684C28.3151 29.5731 28.3556 29.6881 28.6022 29.6755C28.9495 29.6571 29.2968 29.6812 29.6382 29.6674C30.1117 29.649 30.3478 29.4098 30.3548 28.9418C30.349 28.3714 30.3386 27.7987 30.3386 27.2261ZM19.741 29.672H21.1301C22.1927 29.672 22.1858 29.672 22.1951 28.6003C22.2008 27.9505 22.1765 27.3134 21.7841 26.7511C20.9352 25.5414 20.0925 24.3301 19.256 23.1172C19.1703 22.993 19.0928 22.8964 18.9087 22.9332C18.2477 23.0712 17.5856 23.2035 16.9212 23.3254C16.7082 23.3633 16.6897 23.4404 16.7452 23.6416C16.8876 24.12 17.0068 24.6064 17.1098 25.0952C17.4027 26.4751 17.3749 27.8838 17.3506 29.2856C17.3448 29.6157 17.4386 29.6927 17.7558 29.6801C18.4156 29.6548 19.0789 29.672 19.741 29.672ZM22.525 17.1742C21.3458 17.1742 20.1662 17.1742 18.9863 17.1742C18.8323 17.1742 18.6031 17.0972 18.6471 17.4042C18.6853 17.6422 18.4966 18.0286 18.9388 18.0298C19.381 18.0309 19.4586 18.2425 19.5025 18.6048C19.5965 19.3338 19.9562 20.0033 20.5136 20.4866C21.071 20.9699 21.7875 21.2333 22.5273 21.2271C23.2671 21.2209 23.979 20.9454 24.5281 20.4528C25.0772 19.9602 25.4254 19.2847 25.5069 18.5542C25.5416 18.2184 25.6423 18.0309 26.0278 18.0344C26.5059 18.0344 26.3322 17.6503 26.36 17.3973C26.3982 17.0523 26.1285 17.1845 25.978 17.1834C24.8274 17.1742 23.6756 17.1742 22.525 17.1742ZM24.3968 12.173C24.3968 12.2638 24.384 12.3202 24.3863 12.3777C24.3956 12.6134 24.3574 12.8285 24.0576 12.8204C23.7578 12.8124 23.7508 12.5835 23.7485 12.3604C23.7404 11.7763 23.6987 11.7464 23.0899 11.69C22.8827 11.6705 22.8109 11.7222 22.819 11.9373C22.834 12.3662 22.819 12.7963 22.819 13.2252C22.819 13.4472 22.7241 13.584 22.4868 13.5783C22.2691 13.5783 22.1858 13.4391 22.1846 13.2402C22.1846 12.9251 22.1846 12.61 22.1846 12.2949C22.1846 11.6187 22.1071 11.5658 21.4612 11.7786C21.078 11.8993 21.3095 12.2098 21.2702 12.4317C21.2308 12.6537 21.203 12.8043 20.9622 12.8193C20.7215 12.8342 20.615 12.6974 20.6242 12.4743C20.6497 12.058 20.4795 12.1764 20.277 12.3305C19.3509 13.0136 18.8682 13.9244 18.7964 15.0663C18.7779 15.3619 18.874 15.4262 19.1541 15.4239C20.4066 15.4102 21.6603 15.4182 22.9139 15.4182H25.897C26.0521 15.4182 26.1979 15.4527 26.2199 15.2009C26.3137 14.0946 25.4501 12.6123 24.3968 12.173ZM14.6732 27.2192C14.6732 27.8056 14.6639 28.3921 14.6732 28.9786C14.6824 29.4029 14.9139 29.641 15.3388 29.6686C15.686 29.6881 16.0333 29.6548 16.3806 29.6812C16.6653 29.7042 16.7128 29.5869 16.7059 29.3362C16.6862 28.5071 16.7059 27.6768 16.6769 26.8477C16.6241 25.8478 16.4504 24.8579 16.1595 23.8992C16.1028 23.7049 16.0437 23.6405 15.8377 23.7589C15.1431 24.1648 14.7056 24.7249 14.6801 25.5471C14.6616 26.1025 14.6732 26.6614 14.6732 27.2192ZM21.0456 21.5648C20.9703 22.1398 21.0259 22.6239 21.4716 23.016C22.3282 23.7704 22.6673 23.7727 23.5286 23.016C23.9326 22.6641 24.0171 22.234 23.9916 21.7407C23.9789 21.5533 23.9083 21.5786 23.7763 21.6257C22.8887 21.9349 21.9183 21.9132 21.0456 21.5648ZM22.5504 16.061C21.2262 16.061 19.9008 16.061 18.5765 16.061C18.3878 16.061 18.1216 15.9932 18.132 16.3083C18.1412 16.5946 18.3959 16.5187 18.5661 16.5187C21.1899 16.5233 23.811 16.5233 26.4295 16.5187C26.6112 16.5187 26.8867 16.5981 26.874 16.2761C26.8624 15.9989 26.6158 16.0622 26.4387 16.061C25.1457 16.0587 23.8492 16.061 22.5527 16.061H22.5504ZM22.503 26.6545L23.4175 25.3493C23.4418 25.3137 23.4695 25.2803 23.4904 25.2435C23.539 25.1538 23.6467 25.0986 23.4719 24.9813C22.8931 24.5903 22.3235 24.2672 21.7031 24.9031C21.6818 24.9228 21.656 24.937 21.6278 24.9445C21.423 25.002 21.3963 25.094 21.526 25.2734C21.8605 25.7219 22.1742 26.183 22.5053 26.6545H22.503ZM19.851 22.7906C19.8571 22.8243 19.8672 22.8571 19.8811 22.8884C20.1319 23.2541 20.3838 23.6186 20.637 23.982C21.0143 24.5213 21.3107 24.534 21.7575 24.028C21.3373 23.7486 20.887 23.4772 20.6543 23.0264C20.4494 22.6319 20.2098 22.6181 19.851 22.7906ZM25.2233 22.7538C24.9524 22.7538 24.6676 22.5399 24.5634 22.7274C24.2393 23.3139 23.7288 23.6934 23.194 24.082C23.5413 24.2706 23.8539 24.6352 24.2011 24.197C24.5484 23.7589 24.8609 23.269 25.2233 22.7538Z" fill="white"/>
<path d="M16.8495 22.004H16.6782C15.6191 22.004 15.4732 21.8718 15.4755 20.8311C15.4755 20.5712 15.4014 20.4493 15.1468 20.3837C14.8935 20.3297 14.6518 20.232 14.4325 20.0951C14.1177 19.8743 13.9394 19.995 13.7148 20.2273C13.1245 20.8403 12.8166 20.8311 12.21 20.2273C11.9959 20.0146 11.7759 19.8076 11.5699 19.588C11.2226 19.2154 11.2226 18.86 11.5606 18.4886C11.6066 18.4329 11.6582 18.3821 11.7146 18.3368C12.0271 18.1068 12.1406 17.8573 11.8616 17.5318C11.8524 17.5204 11.8461 17.507 11.8431 17.4927C11.6787 16.8625 11.424 16.4037 10.6102 16.5152C10.2387 16.567 9.99673 16.2278 9.97937 15.8345C9.96432 15.4009 9.96432 14.9697 9.97705 14.5407C9.99673 14.0693 10.2653 13.8186 10.748 13.799C10.8771 13.791 11.0066 13.791 11.1358 13.799C11.3835 13.822 11.5618 13.7668 11.5907 13.4805C11.6012 13.3947 11.6304 13.3123 11.6764 13.239C12.0144 12.6859 12.1197 12.204 11.4854 11.7314C11.196 11.5186 11.2365 11.1231 11.4854 10.8436C11.8028 10.4917 12.1385 10.1566 12.4913 9.83969C12.8119 9.5545 13.2437 9.5798 13.5563 9.96274C13.8908 10.3733 14.2103 10.4434 14.6282 10.1341C14.6402 10.1266 14.6535 10.1215 14.6675 10.1191C15.2915 10.0099 15.5716 9.69249 15.4836 9.01976C15.435 8.62647 15.7927 8.34358 16.2152 8.32978C16.6377 8.31598 17.0452 8.31943 17.4631 8.32748C17.9504 8.34013 18.2629 8.62532 18.2224 9.11406C18.1773 9.64764 18.3092 9.98803 18.8869 10.0536C18.9013 10.0541 18.9153 10.0585 18.9274 10.0662C19.4321 10.4285 19.8419 10.4112 20.254 9.87534C20.5214 9.53035 21.0249 9.60625 21.3201 9.92594C21.4521 10.0708 21.5053 10.2249 21.3803 10.3859C21.2553 10.5469 21.0712 10.5814 20.93 10.4377C20.7425 10.2468 20.6406 10.3595 20.5167 10.494C20.4091 10.609 20.2945 10.7183 20.1799 10.8275C19.9194 11.0702 19.6242 11.1334 19.3082 10.9644C18.9263 10.7665 18.5282 10.6011 18.1182 10.4699C17.6923 10.3319 17.5858 10.0007 17.5892 9.59015C17.5892 8.96916 17.5892 8.96916 16.9792 8.96801H16.8924C16.1689 8.96801 16.1654 8.96801 16.1307 9.68904C16.111 10.1111 15.9154 10.379 15.501 10.5067C15.2003 10.5999 14.907 10.7153 14.6235 10.8517C14.0066 11.1472 13.8433 11.13 13.3676 10.6608C12.9636 10.2629 12.9636 10.2629 12.5665 10.6608L12.5052 10.7217C11.9542 11.2691 11.9507 11.2725 12.4681 11.8268C12.5941 11.9458 12.6766 12.1031 12.7026 12.2739C12.7286 12.4446 12.6966 12.6191 12.6117 12.7698C12.4658 13.0803 12.3153 13.3896 12.1996 13.7105C11.9866 14.3085 11.8396 14.4223 11.1971 14.4281C10.5547 14.4338 10.6322 14.3349 10.6183 14.9927C10.6183 15.0214 10.6183 15.049 10.6183 15.0778C10.6183 15.846 10.6183 15.8506 11.3777 15.8828C11.5529 15.8773 11.7247 15.9313 11.8648 16.0358C12.0049 16.1403 12.1051 16.2891 12.1487 16.4577C12.2491 16.7853 12.3765 17.1042 12.5295 17.4111C12.8166 17.9722 12.7807 18.1689 12.3339 18.6231C11.887 19.0774 11.8604 18.9497 12.3258 19.4281L12.386 19.4891C12.9346 20.033 12.9381 20.0364 13.4938 19.5282C13.6135 19.4026 13.7718 19.3201 13.9439 19.2939C14.116 19.2677 14.292 19.2991 14.4441 19.3833C14.7682 19.5351 15.0958 19.6811 15.4315 19.803C15.971 19.9973 16.1168 20.1802 16.1261 20.7414C16.1365 21.3681 16.1365 21.3681 16.7732 21.3681H16.8171C17.5615 21.3681 17.5684 21.3681 17.5858 20.6425C17.5939 20.2975 17.7119 20.0295 18.0407 19.8812C18.2155 19.8018 18.3764 19.8087 18.491 19.9962C18.5905 20.156 18.5662 20.3262 18.4134 20.409C18.2132 20.516 18.2178 20.6724 18.2317 20.8437C18.3081 21.8051 17.9608 22.0742 17.0614 22.0075C16.9942 21.9948 16.9225 22.004 16.8495 22.004Z" fill="white"/>
<path d="M13.8076 15.1664C13.8076 13.1137 15.8253 11.6383 17.7677 12.2685C17.9853 12.3387 18.2064 12.4169 18.1323 12.6963C18.0536 12.9964 17.8336 12.9631 17.5813 12.8906C16.5916 12.61 15.7222 12.8377 15.0439 13.6082C14.4015 14.3384 14.2602 15.1952 14.6469 16.0852C15.059 17.0213 15.7998 17.5193 16.8358 17.5468C17.0824 17.5537 17.3371 17.5675 17.3336 17.8757C17.3336 18.2207 17.0477 18.2058 16.7953 18.2046C15.155 18.1908 13.8088 16.8224 13.8076 15.1664Z" fill="white"/>
</g>
<defs>
<clipPath id="clip0_1_834">
<rect width="21.0435" height="22" fill="white" transform="translate(9.96387 8.31946)"/>
</clipPath>
</defs>
</svg>
