<svg width="40" height="41" viewBox="0 0 40 41" fill="none" xmlns="http://www.w3.org/2000/svg">
<circle cx="20" cy="20.8013" r="20" fill="#1DAB7E"/>
<g clip-path="url(#clip0_1_990)">
<path d="M13.0004 21.0435C13.0004 19.0898 12.9995 17.1352 13.0004 15.1815C13.0013 13.9165 13.7033 13.1829 14.9166 13.1772C15.2852 13.1754 15.6546 13.1679 16.0231 13.181C16.2019 13.1875 16.2909 13.1491 16.272 12.9364C16.2055 12.1812 16.3062 12.0819 17.1151 12.0997C17.1376 12.1006 17.1601 12.0969 17.1825 12.0997C17.6247 12.1606 17.9115 12.0453 18.2027 11.6021C18.9882 10.4084 20.8137 10.5892 21.4473 11.8729C21.5309 12.0416 21.6136 12.1156 21.7997 12.1044C22.1116 12.0866 22.4252 12.0894 22.738 12.1034C23.1191 12.1203 23.2279 12.2487 23.2315 12.6431C23.2324 12.7368 23.2404 12.8315 23.2297 12.9233C23.2072 13.1173 23.271 13.1885 23.466 13.181C23.857 13.1651 24.248 13.1726 24.639 13.1772C25.785 13.1904 26.4986 13.9381 26.4995 15.1337C26.5013 19.0767 26.5013 23.0196 26.4995 26.9635C26.4986 28.0673 25.8209 28.7954 24.7684 28.7972C21.4276 28.8038 18.0858 28.8038 14.745 28.7972C13.6754 28.7954 13.0022 28.0682 13.0013 26.9401C12.9995 24.9742 13.0004 23.0084 13.0004 21.0435ZM13.83 21.0519C13.83 23.0056 13.83 24.9583 13.83 26.912C13.83 27.625 14.1194 27.9436 14.7962 27.9445C18.1029 27.9483 21.4096 27.9483 24.7163 27.9445C25.3751 27.9436 25.6699 27.6213 25.6699 26.9354C25.6699 23.2042 25.6699 19.473 25.6699 15.7409C25.6699 15.5188 25.6717 15.2968 25.6699 15.0738C25.6636 14.4197 25.3176 14.0515 24.701 14.0412C24.4664 14.0374 24.2318 14.0402 23.9972 14.0402C23.2324 14.0402 23.2324 14.0402 23.2306 14.8564C23.2306 14.9145 23.2333 14.9735 23.2297 15.0316C23.2099 15.3511 23.0499 15.5263 22.7398 15.5273C20.74 15.532 18.7401 15.532 16.7403 15.5273C16.4311 15.5263 16.281 15.3539 16.2711 15.0185C16.2639 14.7852 16.2523 14.549 16.2747 14.3176C16.2972 14.0749 16.2019 14.0271 15.9934 14.0355C15.6258 14.0515 15.2564 14.0393 14.8879 14.0402C14.1581 14.043 13.83 14.3879 13.83 15.1562C13.8291 17.1211 13.83 19.086 13.83 21.0519ZM19.7468 14.6774C20.5386 14.6774 21.3314 14.6671 22.1232 14.684C22.3632 14.6886 22.4288 14.6109 22.4162 14.3701C22.3974 14.0093 22.3938 13.6448 22.4171 13.2841C22.4351 13.0076 22.3345 12.9421 22.0927 12.9608C21.8374 12.9814 21.5795 12.9655 21.3233 12.9645C21.0689 12.9636 20.9099 12.8371 20.829 12.5804C20.6321 11.9629 20.2429 11.6227 19.7396 11.6134C19.2327 11.604 18.8094 11.9601 18.6107 12.5804C18.5289 12.8362 18.3734 12.9645 18.1182 12.9655C17.8503 12.9655 17.5825 12.9748 17.3146 12.9627C17.1367 12.9552 17.0819 13.0245 17.0864 13.2063C17.0962 13.6148 17.0998 14.0243 17.0855 14.4328C17.0783 14.6409 17.1538 14.684 17.3362 14.6821C18.1397 14.6718 18.9433 14.6774 19.7468 14.6774Z" fill="white"/>
<path d="M21.6934 22.169C20.9564 22.169 20.2194 22.1718 19.4833 22.1681C19.1202 22.1662 18.944 22.0247 18.9377 21.7483C18.9305 21.4569 19.1157 21.3032 19.4941 21.3023C20.9681 21.2995 22.4412 21.2995 23.9153 21.3032C24.2757 21.3042 24.4779 21.4888 24.4429 21.7774C24.406 22.0838 24.1993 22.17 23.9386 22.17C23.189 22.169 22.4412 22.1681 21.6934 22.169Z" fill="white"/>
<path d="M21.7043 17.8898C22.4413 17.8898 23.1774 17.8879 23.9144 17.8907C24.2739 17.8926 24.4492 18.0397 24.4447 18.3208C24.4402 18.5972 24.2569 18.7462 23.9036 18.7471C22.4305 18.749 20.9565 18.749 19.4833 18.7471C19.1211 18.7462 18.9459 18.6066 18.9378 18.3264C18.9297 18.0341 19.1076 17.8916 19.4941 17.8907C20.2302 17.8879 20.9673 17.8898 21.7043 17.8898Z" fill="white"/>
<path d="M21.6833 25.5844C20.9463 25.5844 20.2093 25.5863 19.4732 25.5835C19.1092 25.5826 18.9375 25.4429 18.9375 25.1609C18.9375 24.8742 19.1092 24.7299 19.4696 24.7289C20.9544 24.7271 22.4392 24.7271 23.9241 24.7289C24.2674 24.7299 24.4633 24.8957 24.4427 25.174C24.4184 25.502 24.2072 25.5872 23.9276 25.5854C23.1789 25.5807 22.4311 25.5844 21.6833 25.5844Z" fill="white"/>
<path d="M18.2948 20.6709C18.3038 20.8236 18.2345 20.936 18.1321 21.0372C17.6297 21.5338 17.1299 22.0323 16.6284 22.5299C16.4028 22.7529 16.1817 22.7623 15.9606 22.5196C15.7143 22.2497 15.4626 21.9855 15.2146 21.7166C15.0267 21.5123 14.9746 21.279 15.1732 21.0663C15.3773 20.8479 15.593 20.921 15.7889 21.1141C15.9642 21.2874 16.1116 21.6322 16.3075 21.6013C16.5169 21.5685 16.6904 21.2743 16.8774 21.0916C17.1209 20.8526 17.3591 20.6062 17.6063 20.371C17.742 20.2417 17.9038 20.2164 18.0701 20.3082C18.2094 20.3841 18.2894 20.5031 18.2948 20.6709Z" fill="white"/>
<path d="M18.2911 17.2874C18.2956 17.4195 18.2228 17.5188 18.1311 17.6097C17.6278 18.1082 17.1289 18.6114 16.622 19.1061C16.3829 19.3394 16.1861 19.331 15.9533 19.0892C15.6998 18.825 15.4518 18.5551 15.2046 18.2843C15.0158 18.0773 14.9736 17.8393 15.1794 17.6341C15.3906 17.4232 15.6064 17.5038 15.796 17.7053C15.9596 17.8796 16.1447 18.2 16.2921 18.1831C16.489 18.1607 16.6606 17.8767 16.8395 17.7015C17.093 17.4542 17.3419 17.2021 17.5945 16.9538C17.7329 16.8179 17.901 16.802 18.0619 16.8816C18.2111 16.9557 18.301 17.0915 18.2911 17.2874Z" fill="white"/>
<path d="M15.4508 24.3702C15.5712 24.3637 15.6665 24.418 15.7474 24.5042C15.857 24.6204 15.9793 24.7272 16.0727 24.8556C16.2255 25.0664 16.3424 25.0786 16.5257 24.8734C16.8385 24.5248 17.181 24.2063 17.5144 23.8792C17.7697 23.6291 17.9944 23.6131 18.184 23.8211C18.3584 24.0132 18.3314 24.2559 18.096 24.4911C17.6214 24.9671 17.1441 25.4422 16.6642 25.9126C16.3604 26.2096 16.2139 26.2068 15.9289 25.9069C15.6773 25.6427 15.4283 25.3747 15.1829 25.1039C15.0481 24.9549 15.0086 24.7816 15.1011 24.5904C15.1722 24.4414 15.2899 24.3674 15.4508 24.3702Z" fill="white"/>
</g>
<defs>
<clipPath id="clip0_1_990">
<rect width="13.5" height="18" fill="white" transform="translate(13 10.8013)"/>
</clipPath>
</defs>
</svg>
