<svg width="40" height="41" viewBox="0 0 40 41" fill="none" xmlns="http://www.w3.org/2000/svg">
<circle cx="20" cy="20.8013" r="20" fill="#1DAB7E"/>
<g clip-path="url(#clip0_1_1003)">
<path d="M20.4472 28.5979C21.9133 27.7925 23.2992 27.0308 24.6862 26.2692C25.4673 25.8397 26.2424 25.4004 27.0345 24.9916C27.2888 24.8602 27.3751 24.7081 27.3605 24.4307C27.3374 23.9927 27.3532 23.5535 27.3557 23.1142C27.3569 22.8161 27.4834 22.6081 27.8034 22.6044C28.1222 22.6008 28.2621 22.8003 28.2633 23.1009C28.267 23.736 28.2609 24.3723 28.267 25.0074C28.2694 25.2471 28.1611 25.4041 27.9567 25.516C25.4004 26.9165 22.8441 28.3181 20.289 29.7222C20.0639 29.8463 19.8644 29.8171 19.649 29.6979C17.1219 28.3072 14.596 26.914 12.0604 25.5379C11.6747 25.3286 11.6893 25.0099 11.727 24.685C11.7745 24.2652 11.6674 24.1192 11.2063 24.1375C10.1624 24.1789 9.11598 24.1472 8.07083 24.1533C7.74718 24.1557 7.46734 24.0767 7.45882 23.7092C7.44909 23.3089 7.74475 23.2359 8.08543 23.2383C9.1756 23.2444 10.267 23.2286 11.3572 23.2481C11.6613 23.2542 11.738 23.1617 11.7258 22.8709C11.7027 22.327 11.6991 21.7807 11.727 21.2369C11.7429 20.9242 11.6297 20.8645 11.3462 20.8731C10.6953 20.8925 10.0431 20.8731 9.39217 20.8816C9.03568 20.8864 8.66215 20.8682 8.67188 20.4119C8.68162 19.9532 9.06731 19.963 9.41529 19.9666C10.082 19.9739 10.7488 19.9593 11.4143 19.9739C11.6431 19.9788 11.7441 19.9301 11.7234 19.6782C11.6869 19.2451 11.8974 18.6842 11.6455 18.4092C11.4131 18.1561 10.8461 18.3399 10.4264 18.3374C9.16952 18.3289 7.91144 18.3301 6.65458 18.3374C6.3066 18.3399 6.01946 18.245 6.03162 17.8581C6.04257 17.4991 6.32242 17.4188 6.64971 17.4213C8.20953 17.4286 9.77057 17.4152 11.3304 17.4322C11.6492 17.4359 11.7806 17.3556 11.7197 17.0368C11.6005 16.415 11.9047 16.0975 12.44 15.8128C14.8126 14.5498 17.1657 13.2479 19.5152 11.9412C19.8632 11.7477 20.1333 11.7526 20.4788 11.9436C22.9074 13.2942 25.3445 14.6313 27.7876 15.9551C28.1417 16.1474 28.2877 16.37 28.2743 16.774C28.2463 17.5904 28.2597 18.408 28.2694 19.2256C28.2731 19.5724 28.1806 19.8608 27.7925 19.851C27.4348 19.8413 27.3472 19.5614 27.352 19.2342C27.363 18.6051 27.3557 17.9749 27.3557 17.2692C26.65 17.6536 26.0051 18.0053 25.3615 18.3569C25.1887 18.4518 25.2386 18.6173 25.2374 18.7621C25.2337 19.3972 25.2276 20.0335 25.2386 20.6687C25.2447 20.9777 25.1254 21.1809 24.8517 21.3232C24.3687 21.5739 23.899 21.8489 23.4172 22.1007C22.9561 22.3416 22.6494 22.1579 22.6397 21.6359C22.6288 21.0653 22.6373 20.4934 22.6373 19.8583C21.9182 20.2501 21.2478 20.6163 20.575 20.9789C20.4411 21.0507 20.4472 21.1675 20.4472 21.2892C20.4472 23.697 20.4472 26.1 20.4472 28.5979ZM19.5359 28.5894C19.5359 26.1098 19.531 23.7202 19.5432 21.3305C19.5444 21.0835 19.4264 20.9911 19.2427 20.8913C17.1353 19.7403 15.0316 18.5844 12.9255 17.4334C12.8403 17.3872 12.7612 17.2825 12.6286 17.3689C12.6286 19.7513 12.6335 22.1409 12.6213 24.5317C12.6201 24.7787 12.7357 24.8699 12.9206 24.9709C14.7761 25.9832 16.6292 27.0016 18.4822 28.0188C18.8095 28.1964 19.138 28.3729 19.5359 28.5894ZM22.0995 19.1113C22.0447 19.0468 22.0301 19.0151 22.0058 19.0018C19.8364 17.8106 17.667 16.6219 15.4976 15.4319C15.376 15.365 15.275 15.3103 15.1241 15.3954C14.4805 15.7617 13.8271 16.1121 13.1214 16.499C15.3966 17.7461 17.605 18.9543 19.8084 20.1722C19.9739 20.2635 20.0858 20.2209 20.2221 20.1455C20.8426 19.8011 21.4644 19.4605 22.0995 19.1113ZM17.9748 13.8344C18.0065 13.8855 18.0113 13.9037 18.0223 13.9098C20.2148 15.118 22.4073 16.3262 24.5986 17.5344C24.6923 17.5855 24.7775 17.6463 24.8918 17.5831C25.5355 17.2266 26.1791 16.8713 26.8617 16.4953C24.6144 15.2628 22.4183 14.0607 20.227 12.8525C20.0639 12.7625 19.9386 12.7491 19.7707 12.8452C19.1818 13.1798 18.5832 13.4998 17.9748 13.8344ZM23.7737 18.1306C23.624 18.0442 23.4865 17.9615 23.3442 17.8836C21.4023 16.8178 19.4471 15.7763 17.5259 14.6727C17.027 14.3868 16.6876 14.4464 16.2824 14.8102C16.4284 14.8966 16.5525 14.9757 16.6815 15.0462C18.61 16.1048 20.547 17.1487 22.4621 18.2328C22.9366 18.5017 23.3296 18.6051 23.7737 18.1306ZM24.3248 18.9069C24.0207 19.1587 23.6046 19.1417 23.5632 19.4824C23.5036 19.9617 23.5486 20.4533 23.5486 21.0276C23.8479 20.7453 24.2993 20.7952 24.3212 20.3608C24.3419 19.9131 24.3248 19.4629 24.3248 18.9069Z" fill="white"/>
<path d="M5.76426 24.1448C5.64381 24.1448 5.52214 24.1619 5.40533 24.1412C5.15469 24.0986 4.99408 23.9465 5.00017 23.6849C5.00625 23.4257 5.16321 23.2688 5.42237 23.2481C5.63042 23.2311 5.84213 23.2396 6.0514 23.2432C6.35193 23.2481 6.54417 23.3905 6.5393 23.7032C6.53444 24.0183 6.3276 24.1436 6.03437 24.1497C5.94433 24.1521 5.8543 24.1497 5.76426 24.1497C5.76426 24.1485 5.76426 24.146 5.76426 24.1448Z" fill="white"/>
<path d="M6.83984 20.4218C6.88608 20.1566 7.0187 19.9692 7.30949 19.9777C7.56987 19.985 7.72682 20.1359 7.73778 20.4023C7.74873 20.6919 7.58569 20.8622 7.30828 20.872C7.02357 20.8817 6.88243 20.6931 6.83984 20.4218Z" fill="white"/>
<path d="M27.7992 20.7782C28.0851 20.7977 28.2591 20.9449 28.2579 21.2284C28.2567 21.5119 28.0717 21.6786 27.798 21.6749C27.5473 21.6713 27.3733 21.5094 27.3636 21.2478C27.3551 20.9631 27.5206 20.8098 27.7992 20.7782Z" fill="white"/>
</g>
<defs>
<clipPath id="clip0_1_1003">
<rect width="23.2757" height="18" fill="white" transform="translate(5 11.8013)"/>
</clipPath>
</defs>
</svg>
