<svg width="40" height="41" viewBox="0 0 40 41" fill="none" xmlns="http://www.w3.org/2000/svg">
<circle cx="20" cy="20.8013" r="20" fill="#1DAB7E"/>
<g clip-path="url(#clip0_1_977)">
<path d="M22.9991 24.4097C22.9991 23.2661 22.9951 22.1236 23.0031 20.98C23.0041 20.7802 22.8937 20.7993 22.7652 20.7993C22.3656 20.8013 21.9661 20.8043 21.5655 20.7993C20.9721 20.7912 20.6027 20.4318 20.6007 19.8434C20.5967 17.483 20.5967 15.1216 20.6007 12.7611C20.6017 12.1718 20.9711 11.8053 21.5635 11.8043C23.725 11.8003 25.8865 11.8003 28.047 11.8043C28.6193 11.8053 28.9938 12.1707 28.9958 12.736C29.0018 15.1095 29.0008 17.483 28.9958 19.8555C28.9948 20.4258 28.6253 20.7922 28.0561 20.7973C27.0812 20.8053 26.1064 20.8123 25.1325 20.7912C24.8434 20.7852 24.75 20.8695 24.7972 21.1416C24.8053 21.1898 24.8053 21.242 24.7972 21.2912C24.749 21.5954 24.8002 21.7481 25.1837 21.7189C25.5853 21.6888 25.7419 22.1818 26.0221 22.2872C26.3192 22.3997 26.7329 22.2973 26.9557 22.6105C27.1244 22.8475 27.2901 22.9157 27.5752 22.9157C28.031 22.9157 28.3894 23.3093 28.3934 23.7772C28.4045 25.0513 28.3934 26.3254 28.4014 27.5995C28.4024 27.8093 28.298 27.9569 28.1826 28.1005C27.8894 28.4639 27.7288 28.8595 27.795 29.3374C27.8412 29.6748 27.6736 29.8043 27.3362 29.8013C26.0371 29.7912 24.738 29.7922 23.4379 29.8003C23.1156 29.8023 22.962 29.6677 22.9991 29.3525C23.0523 28.9077 22.9048 28.5563 22.5765 28.2581C22.2261 27.9398 22.0424 27.5232 21.8978 27.0764C21.5996 26.1527 21.2743 25.237 20.9591 24.3183C20.7683 23.7621 20.8426 23.4609 21.2141 23.3003C21.8044 23.0442 22.3576 23.1999 22.6036 23.6989C22.721 23.9378 22.8254 24.1818 22.9359 24.4248C22.958 24.4207 22.979 24.4147 22.9991 24.4097ZM28.3994 16.3013C28.3994 15.1517 28.3944 14.0021 28.4024 12.8525C28.4044 12.5382 28.292 12.3977 27.9647 12.3987C25.8524 12.4057 23.7411 12.4047 21.6287 12.3997C21.3295 12.3987 21.197 12.5131 21.197 12.8193C21.202 15.1436 21.201 17.4669 21.198 19.7912C21.198 20.0734 21.3155 20.2059 21.6016 20.2009C21.964 20.1938 22.3265 20.1878 22.6889 20.2029C22.9108 20.2119 23.0102 20.1788 23.0102 19.9117C23.0112 19.3856 23.4178 19.0001 23.9057 19.0001C24.3966 19.0011 24.7872 19.3846 24.7922 19.9167C24.7942 20.1436 24.8434 20.2089 25.0783 20.2059C26.0281 20.1908 26.9778 20.1898 27.9276 20.2049C28.292 20.2109 28.4085 20.0613 28.4045 19.7119C28.3904 18.5754 28.3994 17.4388 28.3994 16.3013ZM23.5995 22.8846C23.5995 23.8585 23.5975 24.8334 23.6015 25.8073C23.6025 25.989 23.5513 26.1356 23.3656 26.1828C23.1728 26.231 23.0664 26.1095 22.9941 25.9469C22.9489 25.8444 22.8977 25.744 22.8505 25.6426C22.5975 25.1015 22.3385 24.5623 22.0926 24.0181C21.9771 23.7631 21.7803 23.738 21.5665 23.8264C21.3346 23.9228 21.5213 24.0834 21.5584 24.1969C21.8145 24.978 22.1076 25.7471 22.3425 26.5332C22.5333 27.1687 22.8264 27.729 23.3033 28.1898C23.5132 28.3926 23.6326 28.6256 23.5905 28.9238C23.5634 29.1195 23.6146 29.2069 23.8445 29.2039C24.8816 29.1908 25.9176 29.1928 26.9547 29.2029C27.1545 29.2049 27.2288 29.1477 27.1977 28.9529C27.1455 28.6215 27.28 28.3565 27.4678 28.0914C27.6003 27.9047 27.796 27.74 27.796 27.478C27.796 26.2661 27.7961 25.0553 27.795 23.8434C27.795 23.6366 27.6926 23.5011 27.4808 23.5081C27.2901 23.5141 27.1977 23.6467 27.1967 23.8354C27.1957 24.0854 27.1917 24.3354 27.1967 24.5844C27.2017 24.7942 27.1495 24.979 26.9136 24.989C26.6525 25.0001 26.5913 24.8103 26.5943 24.5834C26.5993 24.1467 26.5933 23.7089 26.5963 23.2722C26.5973 23.0703 26.521 22.9157 26.3092 22.9077C26.0733 22.8997 25.9929 23.0623 25.9949 23.2802C25.998 23.6918 25.9929 24.1045 25.997 24.5171C25.999 24.741 25.9949 24.982 25.7058 24.987C25.3875 24.993 25.3936 24.734 25.3946 24.5001C25.3976 23.9258 25.3926 23.3515 25.3966 22.7762C25.3986 22.5513 25.3906 22.3153 25.1014 22.3093C24.8103 22.3033 24.7922 22.5342 24.7942 22.7631C24.7982 23.3876 24.7932 24.0121 24.7962 24.6366C24.7972 24.7892 24.746 24.9047 24.6065 24.9709C24.492 25.0252 24.3866 24.993 24.2952 24.9137C24.1637 24.7983 24.1958 24.6396 24.1958 24.493C24.1948 23.0191 24.1938 21.5452 24.1969 20.0714C24.1969 19.8454 24.1878 19.6085 23.8977 19.6105C23.6146 19.6135 23.5935 19.8454 23.5945 20.0734C23.6015 21.0111 23.5995 21.9479 23.5995 22.8846Z" fill="white"/>
<path d="M11.0004 16.2962C11.0004 15.1466 10.9994 13.997 11.0004 12.8474C11.0015 12.1547 11.3448 11.8033 12.0275 11.8033C14.1398 11.8013 16.2512 11.8013 18.3635 11.8033C19.0522 11.8043 19.3986 12.1496 19.3986 12.8394C19.4006 15.1507 19.4006 17.4619 19.3986 19.7731C19.3976 20.4549 19.0462 20.7992 18.3524 20.7992C16.2532 20.8003 14.1539 20.8003 12.0546 20.7992C11.3428 20.7992 11.0015 20.4569 11.0004 19.744C10.9994 18.5954 11.0004 17.4458 11.0004 16.2962ZM11.6008 16.2832C11.6008 17.4077 11.6008 18.5312 11.6008 19.6557C11.6008 20.1577 11.641 20.1999 12.1269 20.1999C14.176 20.2009 16.2241 20.2009 18.2731 20.1999C18.747 20.1999 18.7982 20.1507 18.7982 19.6918C18.7992 17.4308 18.7992 15.1707 18.7982 12.9097C18.7982 12.4619 18.743 12.4037 18.3093 12.4037C16.2361 12.4027 14.1619 12.4027 12.0887 12.4037C11.656 12.4037 11.6018 12.4619 11.6008 12.9107C11.5998 14.0352 11.6008 15.1587 11.6008 16.2832Z" fill="white"/>
<path d="M15.153 29.7973C14.1159 29.7973 13.0789 29.7993 12.0418 29.7963C11.351 29.7953 11.0017 29.4499 11.0017 28.7651C10.9997 26.6537 10.9997 24.5422 11.0007 22.4308C11.0017 21.7461 11.35 21.4007 12.0408 21.3997C14.1531 21.3977 16.2644 21.3977 18.3768 21.3997C19.0424 21.4007 19.3978 21.7511 19.3988 22.4117C19.4008 24.5352 19.4008 26.6597 19.3988 28.7832C19.3978 29.4438 19.0434 29.7942 18.3768 29.7953C17.3025 29.7993 16.2273 29.7973 15.153 29.7973ZM11.601 25.5734C11.601 26.6226 11.6101 27.6718 11.596 28.721C11.591 29.0804 11.7305 29.2039 12.0839 29.2019C14.1702 29.1918 16.2564 29.1928 18.3426 29.2009C18.684 29.2019 18.8054 29.0683 18.8044 28.733C18.7964 26.6346 18.7974 24.5362 18.8034 22.4378C18.8044 22.1145 18.6729 21.9951 18.3547 21.9961C16.2564 22.0031 14.1571 22.0041 12.0588 21.9951C11.7175 21.994 11.594 22.1276 11.597 22.4629C11.6081 23.5001 11.601 24.5372 11.601 25.5734Z" fill="white"/>
<path d="M25.1669 18.4006C24.5656 18.4488 23.904 18.3434 23.3267 17.8916C22.4452 17.2008 22.151 16.0171 22.6199 14.998C23.0807 13.996 24.1851 13.4267 25.2412 13.6466C26.3737 13.8825 27.1668 14.8082 27.197 15.9327C27.2 16.0572 27.203 16.1827 27.197 16.3072C27.1598 17.0502 26.4108 17.4428 25.7954 17.0301C25.6488 16.9317 25.5705 16.9227 25.4159 17.015C24.9059 17.3213 24.3387 17.245 23.9391 16.8474C23.5546 16.4648 23.4723 15.8735 23.7363 15.4006C24.0013 14.9277 24.5515 14.6877 25.0796 14.8142C25.6047 14.9397 25.9771 15.4227 25.9992 15.994C26.0093 16.2409 25.9109 16.5994 26.3115 16.5843C26.701 16.5693 26.5986 16.2098 26.5936 15.9669C26.5745 14.9759 25.7663 14.1958 24.7834 14.2028C23.8036 14.2098 23.0014 15.016 22.9994 15.997C22.9974 16.9799 23.7805 17.7771 24.7744 17.7992C25.1489 17.8072 25.5233 17.8042 25.8988 17.7992C26.1127 17.7962 26.2864 17.8594 26.2894 18.0964C26.2924 18.3323 26.1227 18.4056 25.9069 18.4016C25.694 18.3976 25.4822 18.4006 25.1669 18.4006ZM24.2011 15.9719C24.1851 16.2942 24.4381 16.5763 24.7613 16.5984C25.0806 16.6195 25.3707 16.3695 25.3968 16.0482C25.424 15.7118 25.1579 15.4146 24.8196 15.4026C24.4963 15.3926 24.2162 15.6496 24.2011 15.9719Z" fill="white"/>
<path d="M11.8868 15.3664C11.8798 14.5703 12.2382 13.9036 12.8285 13.3293C13.5845 12.5933 13.455 12.5763 14.1979 13.3223C14.5062 13.6315 14.8104 13.9448 15.1256 14.248C15.3404 14.4538 15.3555 14.6415 15.1316 14.8494C14.9489 15.0191 14.7732 15.1968 14.6035 15.3795C14.209 15.8032 14.215 16.3102 14.6136 16.7098C15.0051 17.1024 15.5372 17.1094 15.9468 16.7229C16.1376 16.5431 16.3203 16.3554 16.503 16.1676C16.6717 15.995 16.8434 15.9699 17.0211 16.1466C17.499 16.6225 17.9758 17.0974 18.4497 17.5763C18.5662 17.6948 18.6154 17.8484 18.4929 17.9789C17.9307 18.5793 17.3835 19.2018 16.5161 19.3785C15.5633 19.5723 14.7351 19.3313 14.0353 18.6707C13.5634 18.2259 13.1096 17.761 12.6579 17.2952C12.1509 16.7731 11.8858 16.1446 11.8868 15.3664ZM12.945 14.1486C12.3135 14.8614 12.3256 16.0231 12.9831 16.751C13.4841 17.3052 14.0162 17.8363 14.5704 18.3373C15.3013 18.998 16.3695 19.017 17.1958 18.3885C16.8735 18.0843 16.5522 17.7901 16.243 17.4849C16.1416 17.3845 16.0603 17.4006 15.9458 17.4508C15.2782 17.7409 14.6768 17.6335 14.1698 17.1094C13.6859 16.6104 13.5815 16.0271 13.8656 15.3905C13.9259 15.255 13.9329 15.1757 13.8245 15.0672C13.5273 14.768 13.2402 14.4568 12.945 14.1486ZM13.5223 13.512C13.4731 13.5552 13.4269 13.5933 13.3837 13.6335C13.2974 13.7118 13.3657 13.761 13.4179 13.8132C13.6909 14.0873 13.966 14.3594 14.2371 14.6355C14.3154 14.7148 14.3797 14.766 14.4811 14.6586C14.5855 14.5492 14.5162 14.4879 14.4419 14.4136C14.1758 14.1496 13.9118 13.8845 13.6468 13.6205C13.6106 13.5853 13.5715 13.5552 13.5223 13.512ZM16.7088 16.7429C16.6847 16.7881 16.6596 16.8454 16.6255 16.8966C16.5793 16.9668 16.6195 17.013 16.6627 17.0572C16.9528 17.3494 17.245 17.6405 17.5351 17.9327C17.6044 18.002 17.6586 17.9839 17.7228 17.9247C17.7981 17.8544 17.8232 17.7931 17.7379 17.7098C17.4437 17.4207 17.1546 17.1275 16.8614 16.8373C16.8373 16.8122 16.8012 16.7992 16.7088 16.7429Z" fill="white"/>
<path d="M15.2186 23.499C16.0429 23.499 16.8671 23.498 17.6914 23.499C18.1391 23.5 18.1984 23.5552 18.1984 23.9869C18.2004 25.0612 18.2004 26.1345 18.1984 27.2088C18.1974 27.6405 18.1381 27.6968 17.6914 27.6968C16.0298 27.6978 14.3683 27.6978 12.7077 27.6968C12.26 27.6968 12.2017 27.6405 12.2007 27.2088C12.1987 26.1345 12.1987 25.0612 12.2007 23.9869C12.2017 23.5542 12.259 23.5 12.7077 23.499C13.545 23.498 14.3823 23.499 15.2186 23.499ZM13.3031 24.1084C13.9245 24.6606 14.4908 25.1626 15.056 25.6646C15.1333 25.7339 15.1985 25.7962 15.308 25.6978C15.8853 25.1797 16.4676 24.6677 17.099 24.1084C15.808 24.1084 14.5992 24.1084 13.3031 24.1084ZM17.091 27.0823C16.7055 26.742 16.3762 26.4568 16.0549 26.1626C15.9395 26.0572 15.8632 26.0181 15.7146 26.1365C15.2628 26.497 15.1594 26.4909 14.6795 26.1285C14.5741 26.0492 14.5088 26.0181 14.3974 26.1195C14.056 26.4327 13.7037 26.7359 13.3111 27.0823C14.5972 27.0823 15.809 27.0823 17.091 27.0823ZM12.8172 26.7169C13.2218 26.3594 13.5812 26.0401 13.9436 25.7239C14.033 25.6456 14.0701 25.5883 13.9577 25.492C13.5862 25.1717 13.2228 24.8414 12.8172 24.4809C12.8172 25.244 12.8172 25.9468 12.8172 26.7169ZM17.5809 24.4839C17.1834 24.8383 16.825 25.1606 16.4645 25.4789C16.3762 25.5562 16.333 25.6124 16.4485 25.7118C16.8199 26.0321 17.1824 26.3614 17.5809 26.7158C17.5809 25.9468 17.5809 25.244 17.5809 24.4839Z" fill="white"/>
</g>
<defs>
<clipPath id="clip0_1_977">
<rect width="18" height="18" fill="white" transform="translate(11 11.8013)"/>
</clipPath>
</defs>
</svg>
