<svg width="22" height="21" viewBox="0 0 22 21" fill="none" xmlns="http://www.w3.org/2000/svg">
<g id="icon/youtube">
<path id="vector" fill-rule="evenodd" clip-rule="evenodd" d="M17.6602 5.16364C18.392 5.36024 18.9708 5.9391 19.1674 6.67086C19.5279 8.00334 19.5388 10.7666 19.5388 10.7666C19.5388 10.7666 19.5388 13.5407 19.1784 14.8623C18.9818 15.5941 18.4029 16.1729 17.6711 16.3695C16.3496 16.7299 11.0306 16.7299 11.0306 16.7299C11.0306 16.7299 5.71165 16.7299 4.39011 16.3695C3.65834 16.1729 3.07948 15.5941 2.88288 14.8623C2.52246 13.5298 2.52246 10.7666 2.52246 10.7666C2.52246 10.7666 2.52246 8.00334 2.87196 6.68179C3.06856 5.95002 3.64742 5.37116 4.37918 5.17457C5.70073 4.81414 11.0197 4.80322 11.0197 4.80322C11.0197 4.80322 16.3387 4.80322 17.6602 5.16364ZM13.7392 10.7666L9.3268 13.3223V8.21086L13.7392 10.7666Z" fill="#1DAB7E"/>
</g>
</svg>
